<svg width="96" height="96" viewBox="0 0 96 96" fill="none" xmlns="http://www.w3.org/2000/svg">
<mask id="mask0_674_63080" style="mask-type:alpha" maskUnits="userSpaceOnUse" x="8" y="19" width="80" height="58">
<path d="M59.4287 19.1074C75.2081 19.1075 87.9999 31.8995 88 47.6787C88 63.458 75.2081 76.2499 59.4287 76.25C59.3796 76.25 59.3303 76.2483 59.2812 76.248H27.2861C16.6349 76.248 8 67.614 8 56.9629C8 46.3118 16.6349 37.6777 27.2861 37.6777C29.0603 37.6778 30.7785 37.9176 32.4102 38.3662C36.2723 27.1593 46.91 19.1074 59.4287 19.1074Z" fill="#D9D9D9"/>
</mask>
<g mask="url(#mask0_674_63080)">
<ellipse cx="59.4307" cy="47.6717" rx="28.5713" ry="28.5711" fill="url(#paint0_linear_674_63080)"/>
<g filter="url(#filter0_d_674_63080)">
<path d="M27.2852 37.6699C37.9362 37.6699 46.5711 46.3041 46.5713 56.9551C46.5713 57.1946 46.5653 57.4335 46.5566 57.6709L46.5713 58.4678C46.8728 66.6408 51.8165 72.7824 59.4277 76.2422H27.2861L27.2871 76.2402L27.2852 76.2412C16.6342 76.241 8 67.606 8 56.9551C8.00018 46.3043 16.6343 37.6702 27.2852 37.6699Z" fill="url(#paint1_linear_674_63080)"/>
</g>
<g opacity="0.3">
<mask id="path-4-inside-1_674_63080" fill="white">
<path d="M59.4287 19.1006C75.208 19.1007 87.9998 31.8917 88 47.6709C88 63.4502 75.2081 76.2421 59.4287 76.2422C59.4014 76.2422 59.374 76.2413 59.3467 76.2412H27.2861C16.6349 76.2412 8 67.6062 8 56.9551C8.00011 46.3041 16.635 37.6699 27.2861 37.6699C29.0604 37.67 30.7784 37.9107 32.4102 38.3594C36.272 27.1521 46.9097 19.1006 59.4287 19.1006Z"/>
</mask>
<path d="M59.4287 19.1006L59.4287 17.672H59.4287V19.1006ZM88 47.6709H89.4286V47.6709L88 47.6709ZM59.4287 76.2422V77.6707H59.4287L59.4287 76.2422ZM59.3467 76.2412L59.3507 74.8127H59.3467V76.2412ZM8 56.9551L6.57144 56.9551V56.9551H8ZM27.2861 37.6699L27.2862 36.2414H27.2861V37.6699ZM32.4102 38.3594L32.0314 39.7368L33.324 40.0922L33.7608 38.8248L32.4102 38.3594ZM59.4287 19.1006L59.4287 20.5291C74.4191 20.5292 86.5713 32.6807 86.5714 47.6709L88 47.6709L89.4286 47.6709C89.4284 31.1027 75.9969 17.6721 59.4287 17.672L59.4287 19.1006ZM88 47.6709H86.5714C86.5714 62.6613 74.4192 74.8135 59.4287 74.8136L59.4287 76.2422L59.4287 77.6707C75.9971 77.6707 89.4286 64.2392 89.4286 47.6709H88ZM59.4287 76.2422V74.8136C59.429 74.8136 59.4269 74.8136 59.4122 74.8134C59.4012 74.8132 59.3766 74.8127 59.3507 74.8127L59.3467 76.2412L59.3427 77.6698C59.3425 77.6698 59.3437 77.6698 59.3473 77.6698C59.3513 77.6699 59.3555 77.6699 59.3632 77.6701C59.3758 77.6703 59.4011 77.6707 59.4287 77.6707V76.2422ZM59.3467 76.2412V74.8127H27.2861V76.2412V77.6698H59.3467V76.2412ZM27.2861 76.2412V74.8127C17.4239 74.8127 9.42856 66.8172 9.42856 56.9551H8H6.57144C6.57144 68.3951 15.846 77.6698 27.2861 77.6698V76.2412ZM8 56.9551L9.42856 56.9551C9.42866 47.0931 17.4239 39.0985 27.2861 39.0985V37.6699V36.2414C15.8461 36.2414 6.57156 45.515 6.57144 56.9551L8 56.9551ZM27.2861 37.6699L27.2861 39.0985C28.9306 39.0985 30.5213 39.3216 32.0314 39.7368L32.4102 38.3594L32.7889 36.9819C31.0355 36.4999 29.1902 36.2414 27.2862 36.2414L27.2861 37.6699ZM32.4102 38.3594L33.7608 38.8248C37.4302 28.176 47.5379 20.5291 59.4287 20.5291V19.1006V17.672C46.2815 17.672 35.1139 26.1281 31.0595 37.894L32.4102 38.3594Z" fill="#ACDFFF" mask="url(#path-4-inside-1_674_63080)"/>
</g>
</g>
<defs>
<filter id="filter0_d_674_63080" x="-3.42848" y="24.8129" width="74.2866" height="61.4292" filterUnits="userSpaceOnUse" color-interpolation-filters="sRGB">
<feFlood flood-opacity="0" result="BackgroundImageFix"/>
<feColorMatrix in="SourceAlpha" type="matrix" values="0 0 0 0 0 0 0 0 0 0 0 0 0 0 0 0 0 0 127 0" result="hardAlpha"/>
<feOffset dy="-1.42856"/>
<feGaussianBlur stdDeviation="5.71424"/>
<feComposite in2="hardAlpha" operator="out"/>
<feColorMatrix type="matrix" values="0 0 0 0 0.414632 0 0 0 0 0.765853 0 0 0 0 1 0 0 0 0.55 0"/>
<feBlend mode="normal" in2="BackgroundImageFix" result="effect1_dropShadow_674_63080"/>
<feBlend mode="normal" in="SourceGraphic" in2="effect1_dropShadow_674_63080" result="shape"/>
</filter>
<linearGradient id="paint0_linear_674_63080" x1="51.5736" y1="16.9578" x2="69.4304" y2="61.9573" gradientUnits="userSpaceOnUse">
<stop stop-color="#F0F9FF"/>
<stop offset="0.545228" stop-color="#E5F5FF"/>
<stop offset="1" stop-color="#BAE4FF"/>
</linearGradient>
<linearGradient id="paint1_linear_674_63080" x1="27.9997" y1="38.3842" x2="38.0002" y2="71.9562" gradientUnits="userSpaceOnUse">
<stop stop-color="#E5F5FF"/>
<stop offset="1" stop-color="#BAE4FF"/>
</linearGradient>
</defs>
</svg>
