<svg width="96" height="96" viewBox="0 0 96 96" fill="none" xmlns="http://www.w3.org/2000/svg">
<mask id="mask0_674_63083" style="mask-type:alpha" maskUnits="userSpaceOnUse" x="8" y="8" width="80" height="58">
<path d="M59.4287 8C75.2081 8.00011 87.9999 20.792 88 36.5713C88 52.3506 75.2081 65.1425 59.4287 65.1426C59.3796 65.1426 59.3303 65.1409 59.2812 65.1406H27.2861C16.6349 65.1406 8 56.5065 8 45.8555C8 35.2044 16.6349 26.5703 27.2861 26.5703C29.0603 26.5704 30.7785 26.8102 32.4102 27.2588C36.2723 16.0519 46.91 8 59.4287 8Z" fill="#D9D9D9"/>
</mask>
<g mask="url(#mask0_674_63083)">
<ellipse cx="59.4307" cy="36.5643" rx="28.5713" ry="28.5711" fill="url(#paint0_linear_674_63083)"/>
<g filter="url(#filter0_d_674_63083)">
<path d="M27.2852 26.5625C37.9362 26.5625 46.5711 35.1967 46.5713 45.8477C46.5713 46.0872 46.5653 46.326 46.5566 46.5635L46.5713 47.3604C46.8728 55.5333 51.8165 61.675 59.4277 65.1348H27.2861L27.2871 65.1328L27.2852 65.1338C16.6342 65.1335 8 56.4986 8 45.8477C8.00018 35.1969 16.6343 26.5628 27.2852 26.5625Z" fill="url(#paint1_linear_674_63083)"/>
</g>
<g opacity="0.3">
<mask id="path-4-inside-1_674_63083" fill="white">
<path d="M59.4287 7.99316C75.208 7.99325 87.9998 20.7843 88 36.5635C88 52.3428 75.2081 65.1347 59.4287 65.1348C59.4014 65.1348 59.374 65.1339 59.3467 65.1338H27.2861C16.6349 65.1338 8 56.4987 8 45.8477C8.00011 35.1967 16.635 26.5625 27.2861 26.5625C29.0604 26.5625 30.7784 26.8033 32.4102 27.252C36.272 16.0447 46.9097 7.99316 59.4287 7.99316Z"/>
</mask>
<path d="M59.4287 7.99316L59.4287 6.5646H59.4287V7.99316ZM88 36.5635H89.4286V36.5635L88 36.5635ZM59.4287 65.1348V66.5633H59.4287L59.4287 65.1348ZM59.3467 65.1338L59.3507 63.7052H59.3467V65.1338ZM8 45.8477L6.57144 45.8476V45.8477H8ZM27.2861 26.5625L27.2862 25.1339H27.2861V26.5625ZM32.4102 27.252L32.0314 28.6294L33.324 28.9848L33.7608 27.7174L32.4102 27.252ZM59.4287 7.99316L59.4287 9.42172C74.4191 9.42181 86.5713 21.5733 86.5714 36.5635L88 36.5635L89.4286 36.5635C89.4284 19.9953 75.9969 6.56469 59.4287 6.5646L59.4287 7.99316ZM88 36.5635H86.5714C86.5714 51.5538 74.4192 63.7061 59.4287 63.7062L59.4287 65.1348L59.4287 66.5633C75.9971 66.5632 89.4286 53.1318 89.4286 36.5635H88ZM59.4287 65.1348V63.7062C59.429 63.7062 59.4269 63.7062 59.4122 63.706C59.4012 63.7058 59.3766 63.7053 59.3507 63.7052L59.3467 65.1338L59.3427 66.5623C59.3425 66.5623 59.3437 66.5623 59.3473 66.5624C59.3513 66.5625 59.3555 66.5625 59.3632 66.5627C59.3758 66.5629 59.4011 66.5633 59.4287 66.5633V65.1348ZM59.3467 65.1338V63.7052H27.2861V65.1338V66.5623H59.3467V65.1338ZM27.2861 65.1338V63.7052C17.4239 63.7052 9.42856 55.7098 9.42856 45.8477H8H6.57144C6.57144 57.2877 15.846 66.5623 27.2861 66.5623V65.1338ZM8 45.8477L9.42856 45.8477C9.42866 35.9857 17.4239 27.9911 27.2861 27.9911V26.5625V25.1339C15.8461 25.1339 6.57156 34.4076 6.57144 45.8476L8 45.8477ZM27.2861 26.5625L27.2861 27.9911C28.9306 27.9911 30.5213 28.2142 32.0314 28.6294L32.4102 27.252L32.7889 25.8745C31.0355 25.3924 29.1902 25.134 27.2862 25.1339L27.2861 26.5625ZM32.4102 27.252L33.7608 27.7174C37.4302 17.0686 47.5379 9.42172 59.4287 9.42172V7.99316V6.5646C46.2815 6.5646 35.1139 15.0207 31.0595 26.7865L32.4102 27.252Z" fill="#ACDFFF" mask="url(#path-4-inside-1_674_63083)"/>
</g>
</g>
<mask id="path-6-inside-2_674_63083" fill="white">
<path d="M22.211 73.1426C23.2455 73.1426 24.0839 73.9812 24.084 75.0156V77.3633L25.7715 76.3896C26.6674 75.8724 27.8128 76.1793 28.3301 77.0752C28.8474 77.9711 28.5405 79.1165 27.6446 79.6338L25.9571 80.6074L27.7354 81.6348C28.6313 82.152 28.9382 83.2974 28.4209 84.1934C27.9036 85.0891 26.7582 85.3961 25.8623 84.8789L24.084 83.8516V85.5059C24.084 86.5404 23.2455 87.3789 22.211 87.3789C21.1765 87.3789 20.338 86.5403 20.3379 85.5059V83.8525L18.5606 84.8789C17.6646 85.3962 16.5183 85.0893 16.001 84.1934C15.4838 83.2974 15.7916 82.152 16.6875 81.6348L18.4649 80.6074L16.7774 79.6338C15.8818 79.1165 15.5749 77.971 16.0918 77.0752C16.6091 76.1793 17.7555 75.8724 18.6514 76.3896L20.3379 77.3633V75.0156C20.338 73.9812 21.1765 73.1426 22.211 73.1426Z"/>
</mask>
<path d="M22.211 73.1426C23.2455 73.1426 24.0839 73.9812 24.084 75.0156V77.3633L25.7715 76.3896C26.6674 75.8724 27.8128 76.1793 28.3301 77.0752C28.8474 77.9711 28.5405 79.1165 27.6446 79.6338L25.9571 80.6074L27.7354 81.6348C28.6313 82.152 28.9382 83.2974 28.4209 84.1934C27.9036 85.0891 26.7582 85.3961 25.8623 84.8789L24.084 83.8516V85.5059C24.084 86.5404 23.2455 87.3789 22.211 87.3789C21.1765 87.3789 20.338 86.5403 20.3379 85.5059V83.8525L18.5606 84.8789C17.6646 85.3962 16.5183 85.0893 16.001 84.1934C15.4838 83.2974 15.7916 82.152 16.6875 81.6348L18.4649 80.6074L16.7774 79.6338C15.8818 79.1165 15.5749 77.971 16.0918 77.0752C16.6091 76.1793 17.7555 75.8724 18.6514 76.3896L20.3379 77.3633V75.0156C20.338 73.9812 21.1765 73.1426 22.211 73.1426Z" fill="url(#paint2_linear_674_63083)"/>
<path d="M22.211 73.1426V72.592H22.2109L22.211 73.1426ZM24.084 75.0156H24.6346V75.0156L24.084 75.0156ZM24.084 77.3633H23.5334V78.3166L24.3592 77.8402L24.084 77.3633ZM25.7715 76.3896L26.0467 76.8666L26.0468 76.8665L25.7715 76.3896ZM28.3301 77.0752L28.8069 76.7999L28.8069 76.7999L28.3301 77.0752ZM27.6446 79.6338L27.9197 80.1107L27.9199 80.1106L27.6446 79.6338ZM25.9571 80.6074L25.6819 80.1305L24.8558 80.6071L25.6816 81.0842L25.9571 80.6074ZM27.7354 81.6348L27.46 82.1115L27.4601 82.1116L27.7354 81.6348ZM28.4209 84.1934L28.8977 84.4687L28.8978 84.4687L28.4209 84.1934ZM25.8623 84.8789L25.5869 85.3557L25.587 85.3557L25.8623 84.8789ZM24.084 83.8516L24.3594 83.3748L23.5334 82.8976V83.8516H24.084ZM24.084 85.5059L24.6346 85.5059V85.5059H24.084ZM22.211 87.3789L22.2109 87.9295H22.211V87.3789ZM20.3379 85.5059H19.7873V85.5059L20.3379 85.5059ZM20.3379 83.8525H20.8885V82.8988L20.0626 83.3757L20.3379 83.8525ZM18.5606 84.8789L18.8359 85.3557L18.8359 85.3557L18.5606 84.8789ZM16.001 84.1934L15.5242 84.4686L15.5242 84.4687L16.001 84.1934ZM16.6875 81.6348L16.9628 82.1116L16.9631 82.1115L16.6875 81.6348ZM18.4649 80.6074L18.7404 81.0841L19.5659 80.607L18.74 80.1305L18.4649 80.6074ZM16.7774 79.6338L16.502 80.1106L16.5022 80.1107L16.7774 79.6338ZM16.0918 77.0752L15.615 76.7999L15.615 76.8L16.0918 77.0752ZM18.6514 76.3896L18.3761 76.8665L18.3761 76.8665L18.6514 76.3896ZM20.3379 77.3633L20.0626 77.8401L20.8885 78.3169V77.3633H20.3379ZM20.3379 75.0156L19.7873 75.0156V75.0156H20.3379ZM22.211 73.1426V73.6932C22.9413 73.6932 23.5334 74.2852 23.5334 75.0157L24.084 75.0156L24.6346 75.0156C24.6345 73.6771 23.5496 72.592 22.211 72.592V73.1426ZM24.084 75.0156H23.5334V77.3633H24.084H24.6346V75.0156H24.084ZM24.084 77.3633L24.3592 77.8402L26.0467 76.8666L25.7715 76.3896L25.4964 75.9127L23.8089 76.8864L24.084 77.3633ZM25.7715 76.3896L26.0468 76.8665C26.6794 76.5013 27.488 76.7179 27.8533 77.3505L28.3301 77.0752L28.8069 76.7999C28.1376 75.6407 26.6555 75.2435 25.4962 75.9128L25.7715 76.3896ZM28.3301 77.0752L27.8533 77.3505C28.2185 77.9831 28.0019 78.7917 27.3693 79.157L27.6446 79.6338L27.9199 80.1106C29.0792 79.4413 29.4763 77.9592 28.8069 76.7999L28.3301 77.0752ZM27.6446 79.6338L27.3694 79.1569L25.6819 80.1305L25.9571 80.6074L26.2322 81.0843L27.9197 80.1107L27.6446 79.6338ZM25.9571 80.6074L25.6816 81.0842L27.46 82.1115L27.7354 81.6348L28.0108 81.158L26.2325 80.1307L25.9571 80.6074ZM27.7354 81.6348L27.4601 82.1116C28.0927 82.4768 28.3093 83.2855 27.9441 83.9181L28.4209 84.1934L28.8978 84.4687C29.5671 83.3094 29.17 81.8273 28.0107 81.1579L27.7354 81.6348ZM28.4209 84.1934L27.9441 83.918C27.5788 84.5505 26.7701 84.7672 26.1376 84.4021L25.8623 84.8789L25.587 85.3557C26.7463 86.025 28.2284 85.6277 28.8977 84.4687L28.4209 84.1934ZM25.8623 84.8789L26.1378 84.4021L24.3594 83.3748L24.084 83.8516L23.8086 84.3283L25.5869 85.3557L25.8623 84.8789ZM24.084 83.8516H23.5334V85.5059H24.084H24.6346V83.8516H24.084ZM24.084 85.5059L23.5334 85.5058C23.5334 86.2363 22.9414 86.8283 22.211 86.8283V87.3789V87.9295C23.5496 87.9295 24.6346 86.8444 24.6346 85.5059L24.084 85.5059ZM22.211 87.3789L22.211 86.8283C21.4806 86.8283 20.8886 86.2362 20.8885 85.5058L20.3379 85.5059L19.7873 85.5059C19.7874 86.8444 20.8724 87.9294 22.2109 87.9295L22.211 87.3789ZM20.3379 85.5059H20.8885V83.8525H20.3379H19.7873V85.5059H20.3379ZM20.3379 83.8525L20.0626 83.3757L18.2852 84.4021L18.5606 84.8789L18.8359 85.3557L20.6133 84.3293L20.3379 83.8525ZM18.5606 84.8789L18.2853 84.4021C17.6526 84.7674 16.843 84.5505 16.4778 83.9181L16.001 84.1934L15.5242 84.4687C16.1936 85.6281 17.6767 86.025 18.8359 85.3557L18.5606 84.8789ZM16.001 84.1934L16.4779 83.9181C16.1129 83.2859 16.3299 82.477 16.9628 82.1116L16.6875 81.6348L16.4122 81.1579C15.2534 81.827 14.8547 83.309 15.5242 84.4686L16.001 84.1934ZM16.6875 81.6348L16.9631 82.1115L18.7404 81.0841L18.4649 80.6074L18.1893 80.1307L16.412 81.1581L16.6875 81.6348ZM18.4649 80.6074L18.74 80.1305L17.0525 79.1569L16.7774 79.6338L16.5022 80.1107L18.1897 81.0843L18.4649 80.6074ZM16.7774 79.6338L17.0528 79.157C16.4205 78.7917 16.2037 77.9829 16.5687 77.3504L16.0918 77.0752L15.615 76.8C14.946 77.9591 15.3432 79.4412 16.502 80.1106L16.7774 79.6338ZM16.0918 77.0752L16.5687 77.3505C16.9338 76.718 17.7434 76.5012 18.3761 76.8665L18.6514 76.3896L18.9267 75.9128C17.7675 75.2436 16.2844 75.6405 15.615 76.7999L16.0918 77.0752ZM18.6514 76.3896L18.3761 76.8665L20.0626 77.8401L20.3379 77.3633L20.6132 76.8864L18.9267 75.9128L18.6514 76.3896ZM20.3379 77.3633H20.8885V75.0156H20.3379H19.7873V77.3633H20.3379ZM20.3379 75.0156L20.8885 75.0157C20.8886 74.2853 21.4806 73.6932 22.211 73.6932L22.211 73.1426L22.2109 72.592C20.8724 72.592 19.7874 73.6771 19.7873 75.0156L20.3379 75.0156Z" fill="#85CFFF" fill-opacity="0.2" mask="url(#path-6-inside-2_674_63083)"/>
<mask id="path-8-inside-3_674_63083" fill="white">
<path d="M48 73.1426C49.0345 73.1426 49.873 73.9812 49.8731 75.0156V77.3633L51.5606 76.3896C52.4565 75.8724 53.6019 76.1793 54.1192 77.0752C54.6364 77.9711 54.3296 79.1165 53.4336 79.6338L51.7461 80.6074L53.5245 81.6348C54.4204 82.152 54.7273 83.2974 54.21 84.1934C53.6927 85.0891 52.5473 85.3961 51.6514 84.8789L49.8731 83.8516V85.5059C49.873 86.5404 49.0346 87.3789 48 87.3789C46.9656 87.3789 46.127 86.5403 46.127 85.5059V83.8525L44.3496 84.8789C43.4537 85.3962 42.3073 85.0893 41.7901 84.1934C41.2729 83.2974 41.5807 82.152 42.4766 81.6348L44.2539 80.6074L42.5664 79.6338C41.6709 79.1165 41.3639 77.971 41.8809 77.0752C42.3982 76.1793 43.5445 75.8724 44.4405 76.3896L46.127 77.3633V75.0156C46.1271 73.9812 46.9656 73.1426 48 73.1426Z"/>
</mask>
<path d="M48 73.1426C49.0345 73.1426 49.873 73.9812 49.8731 75.0156V77.3633L51.5606 76.3896C52.4565 75.8724 53.6019 76.1793 54.1192 77.0752C54.6364 77.9711 54.3296 79.1165 53.4336 79.6338L51.7461 80.6074L53.5245 81.6348C54.4204 82.152 54.7273 83.2974 54.21 84.1934C53.6927 85.0891 52.5473 85.3961 51.6514 84.8789L49.8731 83.8516V85.5059C49.873 86.5404 49.0346 87.3789 48 87.3789C46.9656 87.3789 46.127 86.5403 46.127 85.5059V83.8525L44.3496 84.8789C43.4537 85.3962 42.3073 85.0893 41.7901 84.1934C41.2729 83.2974 41.5807 82.152 42.4766 81.6348L44.2539 80.6074L42.5664 79.6338C41.6709 79.1165 41.3639 77.971 41.8809 77.0752C42.3982 76.1793 43.5445 75.8724 44.4405 76.3896L46.127 77.3633V75.0156C46.1271 73.9812 46.9656 73.1426 48 73.1426Z" fill="url(#paint3_linear_674_63083)"/>
<path d="M48 73.1426V72.592H48L48 73.1426ZM49.8731 75.0156H50.4237V75.0156L49.8731 75.0156ZM49.8731 77.3633H49.3225V78.3166L50.1482 77.8402L49.8731 77.3633ZM51.5606 76.3896L51.8357 76.8666L51.8359 76.8665L51.5606 76.3896ZM54.1192 77.0752L54.596 76.7999L54.596 76.7999L54.1192 77.0752ZM53.4336 79.6338L53.7088 80.1107L53.7089 80.1106L53.4336 79.6338ZM51.7461 80.6074L51.471 80.1305L50.6449 80.6071L51.4707 81.0842L51.7461 80.6074ZM53.5245 81.6348L53.249 82.1115L53.2492 82.1116L53.5245 81.6348ZM54.21 84.1934L54.6868 84.4687L54.6868 84.4687L54.21 84.1934ZM51.6514 84.8789L51.376 85.3557L51.3761 85.3557L51.6514 84.8789ZM49.8731 83.8516L50.1485 83.3748L49.3225 82.8976V83.8516H49.8731ZM49.8731 85.5059L50.4237 85.5059V85.5059H49.8731ZM48 87.3789L48 87.9295H48V87.3789ZM46.127 85.5059H45.5764V85.5059L46.127 85.5059ZM46.127 83.8525H46.6776V82.8988L45.8516 83.3757L46.127 83.8525ZM44.3496 84.8789L44.6249 85.3557L44.625 85.3557L44.3496 84.8789ZM41.7901 84.1934L41.3132 84.4686L41.3132 84.4687L41.7901 84.1934ZM42.4766 81.6348L42.7519 82.1116L42.7521 82.1115L42.4766 81.6348ZM44.2539 80.6074L44.5295 81.0841L45.3549 80.607L44.5291 80.1305L44.2539 80.6074ZM42.5664 79.6338L42.291 80.1106L42.2913 80.1107L42.5664 79.6338ZM41.8809 77.0752L41.4041 76.7999L41.404 76.8L41.8809 77.0752ZM44.4405 76.3896L44.1652 76.8665L44.1652 76.8665L44.4405 76.3896ZM46.127 77.3633L45.8517 77.8401L46.6776 78.3169V77.3633H46.127ZM46.127 75.0156L45.5764 75.0156V75.0156H46.127ZM48 73.1426V73.6932C48.7304 73.6932 49.3224 74.2852 49.3225 75.0157L49.8731 75.0156L50.4237 75.0156C50.4236 73.6771 49.3387 72.592 48 72.592V73.1426ZM49.8731 75.0156H49.3225V77.3633H49.8731H50.4237V75.0156H49.8731ZM49.8731 77.3633L50.1482 77.8402L51.8357 76.8666L51.5606 76.3896L51.2854 75.9127L49.5979 76.8864L49.8731 77.3633ZM51.5606 76.3896L51.8359 76.8665C52.4685 76.5013 53.2771 76.7179 53.6424 77.3505L54.1192 77.0752L54.596 76.7999C53.9267 75.6407 52.4446 75.2435 51.2853 75.9128L51.5606 76.3896ZM54.1192 77.0752L53.6423 77.3505C54.0076 77.9831 53.7909 78.7917 53.1583 79.157L53.4336 79.6338L53.7089 80.1106C54.8682 79.4413 55.2653 77.9592 54.596 76.7999L54.1192 77.0752ZM53.4336 79.6338L53.1585 79.1569L51.471 80.1305L51.7461 80.6074L52.0213 81.0843L53.7088 80.1107L53.4336 79.6338ZM51.7461 80.6074L51.4707 81.0842L53.249 82.1115L53.5245 81.6348L53.7999 81.158L52.0216 80.1307L51.7461 80.6074ZM53.5245 81.6348L53.2492 82.1116C53.8817 82.4768 54.0984 83.2855 53.7332 83.9181L54.21 84.1934L54.6868 84.4687C55.3561 83.3094 54.9591 81.8273 53.7997 81.1579L53.5245 81.6348ZM54.21 84.1934L53.7332 83.918C53.3679 84.5505 52.5591 84.7672 51.9267 84.4021L51.6514 84.8789L51.3761 85.3557C52.5354 86.025 54.0174 85.6277 54.6868 84.4687L54.21 84.1934ZM51.6514 84.8789L51.9268 84.4021L50.1485 83.3748L49.8731 83.8516L49.5977 84.3283L51.376 85.3557L51.6514 84.8789ZM49.8731 83.8516H49.3225V85.5059H49.8731H50.4237V83.8516H49.8731ZM49.8731 85.5059L49.3225 85.5058C49.3225 86.2363 48.7305 86.8283 48 86.8283V87.3789V87.9295C49.3387 87.9295 50.4236 86.8444 50.4237 85.5059L49.8731 85.5059ZM48 87.3789L48.0001 86.8283C47.2696 86.8283 46.6776 86.2362 46.6776 85.5058L46.127 85.5059L45.5764 85.5059C45.5764 86.8444 46.6615 87.9294 48 87.9295L48 87.3789ZM46.127 85.5059H46.6776V83.8525H46.127H45.5764V85.5059H46.127ZM46.127 83.8525L45.8516 83.3757L44.0743 84.4021L44.3496 84.8789L44.625 85.3557L46.4023 84.3293L46.127 83.8525ZM44.3496 84.8789L44.0743 84.4021C43.4416 84.7674 42.6321 84.5505 42.2669 83.9181L41.7901 84.1934L41.3132 84.4687C41.9826 85.6281 43.4658 86.025 44.6249 85.3557L44.3496 84.8789ZM41.7901 84.1934L42.2669 83.9181C41.902 83.2859 42.1189 82.477 42.7519 82.1116L42.4766 81.6348L42.2013 81.1579C41.0424 81.827 40.6438 83.309 41.3132 84.4686L41.7901 84.1934ZM42.4766 81.6348L42.7521 82.1115L44.5295 81.0841L44.2539 80.6074L43.9784 80.1307L42.2011 81.1581L42.4766 81.6348ZM44.2539 80.6074L44.5291 80.1305L42.8416 79.1569L42.5664 79.6338L42.2913 80.1107L43.9788 81.0843L44.2539 80.6074ZM42.5664 79.6338L42.8419 79.157C42.2095 78.7917 41.9928 77.9829 42.3578 77.3504L41.8809 77.0752L41.404 76.8C40.7351 77.9591 41.1323 79.4412 42.291 80.1106L42.5664 79.6338ZM41.8809 77.0752L42.3577 77.3505C42.7229 76.718 43.5324 76.5012 44.1652 76.8665L44.4405 76.3896L44.7158 75.9128C43.5566 75.2436 42.0735 75.6405 41.4041 76.7999L41.8809 77.0752ZM44.4405 76.3896L44.1652 76.8665L45.8517 77.8401L46.127 77.3633L46.4023 76.8864L44.7157 75.9128L44.4405 76.3896ZM46.127 77.3633H46.6776V75.0156H46.127H45.5764V77.3633H46.127ZM46.127 75.0156L46.6776 75.0157C46.6777 74.2853 47.2697 73.6932 48.0001 73.6932L48 73.1426L48 72.592C46.6615 72.592 45.5765 73.6771 45.5764 75.0156L46.127 75.0156Z" fill="#85CFFF" fill-opacity="0.2" mask="url(#path-8-inside-3_674_63083)"/>
<mask id="path-10-inside-4_674_63083" fill="white">
<path d="M73.7891 73.1426C74.8236 73.1426 75.6621 73.9812 75.6621 75.0156V77.3633L77.3496 76.3896C78.2456 75.8724 79.3909 76.1793 79.9082 77.0752C80.4255 77.9711 80.1186 79.1165 79.2227 79.6338L77.5352 80.6074L79.3135 81.6348C80.2095 82.152 80.5163 83.2974 79.9991 84.1934C79.4817 85.0891 78.3363 85.3961 77.4405 84.8789L75.6621 83.8516V85.5059C75.6621 86.5404 74.8236 87.3789 73.7891 87.3789C72.7546 87.3789 71.9161 86.5403 71.9161 85.5059V83.8525L70.1387 84.8789C69.2428 85.3962 68.0964 85.0893 67.5791 84.1934C67.0619 83.2974 67.3697 82.152 68.2657 81.6348L70.043 80.6074L68.3555 79.6338C67.46 79.1165 67.153 77.971 67.67 77.0752C68.1872 76.1793 69.3336 75.8724 70.2295 76.3896L71.9161 77.3633V75.0156C71.9161 73.9812 72.7546 73.1426 73.7891 73.1426Z"/>
</mask>
<path d="M73.7891 73.1426C74.8236 73.1426 75.6621 73.9812 75.6621 75.0156V77.3633L77.3496 76.3896C78.2456 75.8724 79.3909 76.1793 79.9082 77.0752C80.4255 77.9711 80.1186 79.1165 79.2227 79.6338L77.5352 80.6074L79.3135 81.6348C80.2095 82.152 80.5163 83.2974 79.9991 84.1934C79.4817 85.0891 78.3363 85.3961 77.4405 84.8789L75.6621 83.8516V85.5059C75.6621 86.5404 74.8236 87.3789 73.7891 87.3789C72.7546 87.3789 71.9161 86.5403 71.9161 85.5059V83.8525L70.1387 84.8789C69.2428 85.3962 68.0964 85.0893 67.5791 84.1934C67.0619 83.2974 67.3697 82.152 68.2657 81.6348L70.043 80.6074L68.3555 79.6338C67.46 79.1165 67.153 77.971 67.67 77.0752C68.1872 76.1793 69.3336 75.8724 70.2295 76.3896L71.9161 77.3633V75.0156C71.9161 73.9812 72.7546 73.1426 73.7891 73.1426Z" fill="url(#paint4_linear_674_63083)"/>
<path d="M73.7891 73.1426V72.592H73.7891L73.7891 73.1426ZM75.6621 75.0156H76.2127V75.0156L75.6621 75.0156ZM75.6621 77.3633H75.1115V78.3166L75.9373 77.8402L75.6621 77.3633ZM77.3496 76.3896L77.6248 76.8666L77.6249 76.8665L77.3496 76.3896ZM79.9082 77.0752L80.3851 76.7999L80.3851 76.7999L79.9082 77.0752ZM79.2227 79.6338L79.4979 80.1107L79.498 80.1106L79.2227 79.6338ZM77.5352 80.6074L77.26 80.1305L76.434 80.6071L77.2598 81.0842L77.5352 80.6074ZM79.3135 81.6348L79.0381 82.1115L79.0382 82.1116L79.3135 81.6348ZM79.9991 84.1934L80.4758 84.4687L80.4759 84.4687L79.9991 84.1934ZM77.4405 84.8789L77.165 85.3557L77.1652 85.3557L77.4405 84.8789ZM75.6621 83.8516L75.9376 83.3748L75.1115 82.8976V83.8516H75.6621ZM75.6621 85.5059L76.2127 85.5059V85.5059H75.6621ZM73.7891 87.3789L73.7891 87.9295H73.7891V87.3789ZM71.9161 85.5059H71.3655V85.5059L71.9161 85.5059ZM71.9161 83.8525H72.4667V82.8988L71.6407 83.3757L71.9161 83.8525ZM70.1387 84.8789L70.414 85.3557L70.4141 85.3557L70.1387 84.8789ZM67.5791 84.1934L67.1023 84.4686L67.1023 84.4687L67.5791 84.1934ZM68.2657 81.6348L68.541 82.1116L68.5412 82.1115L68.2657 81.6348ZM70.043 80.6074L70.3185 81.0841L71.144 80.607L70.3182 80.1305L70.043 80.6074ZM68.3555 79.6338L68.0801 80.1106L68.0803 80.1107L68.3555 79.6338ZM67.67 77.0752L67.1931 76.7999L67.1931 76.8L67.67 77.0752ZM70.2295 76.3896L69.9542 76.8665L69.9542 76.8665L70.2295 76.3896ZM71.9161 77.3633L71.6408 77.8401L72.4667 78.3169V77.3633H71.9161ZM71.9161 75.0156L71.3655 75.0156V75.0156H71.9161ZM73.7891 73.1426V73.6932C74.5195 73.6932 75.1115 74.2852 75.1115 75.0157L75.6621 75.0156L76.2127 75.0156C76.2126 73.6771 75.1277 72.592 73.7891 72.592V73.1426ZM75.6621 75.0156H75.1115V77.3633H75.6621H76.2127V75.0156H75.6621ZM75.6621 77.3633L75.9373 77.8402L77.6248 76.8666L77.3496 76.3896L77.0745 75.9127L75.387 76.8864L75.6621 77.3633ZM77.3496 76.3896L77.6249 76.8665C78.2575 76.5013 79.0662 76.7179 79.4314 77.3505L79.9082 77.0752L80.3851 76.7999C79.7157 75.6407 78.2336 75.2435 77.0743 75.9128L77.3496 76.3896ZM79.9082 77.0752L79.4314 77.3505C79.7966 77.9831 79.58 78.7917 78.9474 79.157L79.2227 79.6338L79.498 80.1106C80.6573 79.4413 81.0544 77.9592 80.3851 76.7999L79.9082 77.0752ZM79.2227 79.6338L78.9475 79.1569L77.26 80.1305L77.5352 80.6074L77.8104 81.0843L79.4979 80.1107L79.2227 79.6338ZM77.5352 80.6074L77.2598 81.0842L79.0381 82.1115L79.3135 81.6348L79.5889 81.158L77.8106 80.1307L77.5352 80.6074ZM79.3135 81.6348L79.0382 82.1116C79.6708 82.4768 79.8875 83.2855 79.5222 83.9181L79.9991 84.1934L80.4759 84.4687C81.1452 83.3094 80.7481 81.8273 79.5888 81.1579L79.3135 81.6348ZM79.9991 84.1934L79.5223 83.918C79.1569 84.5505 78.3482 84.7672 77.7158 84.4021L77.4405 84.8789L77.1652 85.3557C78.3244 86.025 79.8065 85.6277 80.4758 84.4687L79.9991 84.1934ZM77.4405 84.8789L77.7159 84.4021L75.9376 83.3748L75.6621 83.8516L75.3867 84.3283L77.165 85.3557L77.4405 84.8789ZM75.6621 83.8516H75.1115V85.5059H75.6621H76.2127V83.8516H75.6621ZM75.6621 85.5059L75.1115 85.5058C75.1115 86.2363 74.5195 86.8283 73.7891 86.8283V87.3789V87.9295C75.1277 87.9295 76.2127 86.8444 76.2127 85.5059L75.6621 85.5059ZM73.7891 87.3789L73.7891 86.8283C73.0587 86.8283 72.4667 86.2362 72.4667 85.5058L71.9161 85.5059L71.3655 85.5059C71.3655 86.8444 72.4505 87.9294 73.7891 87.9295L73.7891 87.3789ZM71.9161 85.5059H72.4667V83.8525H71.9161H71.3655V85.5059H71.9161ZM71.9161 83.8525L71.6407 83.3757L69.8634 84.4021L70.1387 84.8789L70.4141 85.3557L72.1914 84.3293L71.9161 83.8525ZM70.1387 84.8789L69.8634 84.4021C69.2307 84.7674 68.4211 84.5505 68.056 83.9181L67.5791 84.1934L67.1023 84.4687C67.7717 85.6281 69.2548 86.025 70.414 85.3557L70.1387 84.8789ZM67.5791 84.1934L68.056 83.9181C67.691 83.2859 67.908 82.477 68.541 82.1116L68.2657 81.6348L67.9904 81.1579C66.8315 81.827 66.4328 83.309 67.1023 84.4686L67.5791 84.1934ZM68.2657 81.6348L68.5412 82.1115L70.3185 81.0841L70.043 80.6074L69.7675 80.1307L67.9901 81.1581L68.2657 81.6348ZM70.043 80.6074L70.3182 80.1305L68.6307 79.1569L68.3555 79.6338L68.0803 80.1107L69.7678 81.0843L70.043 80.6074ZM68.3555 79.6338L68.6309 79.157C67.9986 78.7917 67.7818 77.9829 68.1468 77.3504L67.67 77.0752L67.1931 76.8C66.5241 77.9591 66.9213 79.4412 68.0801 80.1106L68.3555 79.6338ZM67.67 77.0752L68.1468 77.3505C68.5119 76.718 69.3215 76.5012 69.9542 76.8665L70.2295 76.3896L70.5048 75.9128C69.3457 75.2436 67.8625 75.6405 67.1931 76.7999L67.67 77.0752ZM70.2295 76.3896L69.9542 76.8665L71.6408 77.8401L71.9161 77.3633L72.1913 76.8864L70.5048 75.9128L70.2295 76.3896ZM71.9161 77.3633H72.4667V75.0156H71.9161H71.3655V77.3633H71.9161ZM71.9161 75.0156L72.4667 75.0157C72.4667 74.2853 73.0588 73.6932 73.7891 73.6932L73.7891 73.1426L73.7891 72.592C72.4505 72.592 71.3656 73.6771 71.3655 75.0156L71.9161 75.0156Z" fill="#85CFFF" fill-opacity="0.2" mask="url(#path-10-inside-4_674_63083)"/>
<defs>
<filter id="filter0_d_674_63083" x="-3.42848" y="13.7055" width="74.2866" height="61.4292" filterUnits="userSpaceOnUse" color-interpolation-filters="sRGB">
<feFlood flood-opacity="0" result="BackgroundImageFix"/>
<feColorMatrix in="SourceAlpha" type="matrix" values="0 0 0 0 0 0 0 0 0 0 0 0 0 0 0 0 0 0 127 0" result="hardAlpha"/>
<feOffset dy="-1.42856"/>
<feGaussianBlur stdDeviation="5.71424"/>
<feComposite in2="hardAlpha" operator="out"/>
<feColorMatrix type="matrix" values="0 0 0 0 0.414632 0 0 0 0 0.765853 0 0 0 0 1 0 0 0 0.55 0"/>
<feBlend mode="normal" in2="BackgroundImageFix" result="effect1_dropShadow_674_63083"/>
<feBlend mode="normal" in="SourceGraphic" in2="effect1_dropShadow_674_63083" result="shape"/>
</filter>
<linearGradient id="paint0_linear_674_63083" x1="51.5736" y1="5.85033" x2="69.4304" y2="50.8499" gradientUnits="userSpaceOnUse">
<stop stop-color="#F0F9FF"/>
<stop offset="0.545228" stop-color="#E5F5FF"/>
<stop offset="1" stop-color="#BAE4FF"/>
</linearGradient>
<linearGradient id="paint1_linear_674_63083" x1="27.9997" y1="27.2768" x2="38.0002" y2="60.8488" gradientUnits="userSpaceOnUse">
<stop stop-color="#E5F5FF"/>
<stop offset="1" stop-color="#BAE4FF"/>
</linearGradient>
<linearGradient id="paint2_linear_674_63083" x1="22.2111" y1="73.1426" x2="22.2111" y2="87.3789" gradientUnits="userSpaceOnUse">
<stop stop-color="#CFEBFD"/>
<stop offset="1" stop-color="#81C2FF"/>
</linearGradient>
<linearGradient id="paint3_linear_674_63083" x1="48.0002" y1="73.1426" x2="48.0002" y2="87.3789" gradientUnits="userSpaceOnUse">
<stop stop-color="#CFEBFD"/>
<stop offset="1" stop-color="#81C2FF"/>
</linearGradient>
<linearGradient id="paint4_linear_674_63083" x1="73.7892" y1="73.1426" x2="73.7892" y2="87.3789" gradientUnits="userSpaceOnUse">
<stop stop-color="#CFEBFD"/>
<stop offset="1" stop-color="#81C2FF"/>
</linearGradient>
</defs>
</svg>
