<svg width="96" height="96" viewBox="0 0 96 96" fill="none" xmlns="http://www.w3.org/2000/svg">
<ellipse cx="40" cy="40" rx="30" ry="30" fill="url(#paint0_linear_674_63084)"/>
<path d="M40 10.6523C56.2083 10.6523 69.3476 23.7916 69.3477 40C69.3477 56.2084 56.2084 69.3477 40 69.3477C23.7916 69.3477 10.6523 56.2084 10.6523 40C10.6524 23.7916 23.7917 10.6523 40 10.6523Z" stroke="white" stroke-opacity="0.1" stroke-width="1.30435"/>
<g opacity="0.93">
<mask id="mask0_674_63084" style="mask-type:alpha" maskUnits="userSpaceOnUse" x="16" y="36" width="70" height="51">
<path d="M61 36C74.8069 36.0002 86 47.193 86 61C85.9999 74.8069 74.8069 85.9998 61 86L60.9971 85.999C60.9981 85.9995 60.999 86.0005 61 86.001H32.875C23.5553 86.0009 16.0002 78.4456 16 69.126C16 59.8062 23.5552 52.251 32.875 52.251C34.4274 52.251 35.9307 52.461 37.3584 52.8535C40.7371 43.0462 50.0452 36 61 36Z" fill="#D9D9D9"/>
</mask>
<g mask="url(#mask0_674_63084)">
<circle cx="61" cy="60.997" r="25" fill="url(#paint1_linear_674_63084)"/>
<g filter="url(#filter0_d_674_63084)">
<path d="M32.875 52.248C42.1948 52.2481 49.75 59.8033 49.75 69.123C49.75 69.3323 49.7449 69.5406 49.7373 69.748L49.75 70.4453C50.0139 77.5968 54.3391 82.9707 60.999 85.998H32.874V85.9971C23.5547 85.9966 16 78.4425 16 69.123C16 59.8032 23.5552 52.248 32.875 52.248Z" fill="url(#paint2_linear_674_63084)"/>
</g>
<g opacity="0.3">
<mask id="path-6-inside-1_674_63084" fill="white">
<path d="M61 35.9971C74.8069 35.9973 86 47.1901 86 60.9971C86 74.8041 74.8069 85.9969 61 85.9971L60.9971 85.9961C60.9981 85.9966 60.999 85.9976 61 85.998H32.875C23.5553 85.998 16.0001 78.4427 16 69.123C16 59.8033 23.5552 52.2481 32.875 52.248C34.4274 52.248 35.9307 52.4581 37.3584 52.8506C40.7372 43.0434 50.0453 35.9971 61 35.9971Z"/>
</mask>
<path d="M61 35.9971L61 34.7471H61V35.9971ZM86 60.9971H87.25H86ZM61 85.9971L60.6047 87.1829L60.7972 87.2471H61L61 85.9971ZM60.9971 85.9961L61.3924 84.8102L60.4797 87.134L60.9971 85.9961ZM61 85.998V87.248L61.5173 84.8601L61 85.998ZM32.875 85.998L32.875 87.248H32.875V85.998ZM16 69.123H14.75V69.1231L16 69.123ZM32.875 52.248V50.998H32.875L32.875 52.248ZM37.3584 52.8506L37.0271 54.0559L38.1581 54.3668L38.5402 53.2577L37.3584 52.8506ZM61 35.9971L61 37.2471C74.1166 37.2473 84.75 47.8805 84.75 60.9971H86H87.25C87.25 46.4997 75.4973 34.7473 61 34.7471L61 35.9971ZM86 60.9971H84.75C84.75 74.1137 74.1166 84.7469 61 84.7471L61 85.9971L61 87.2471C75.4973 87.2469 87.25 75.4944 87.25 60.9971H86ZM61 85.9971L61.3953 84.8112L61.3924 84.8102L60.9971 85.9961L60.6018 87.1819L60.6047 87.1829L61 85.9971ZM60.9971 85.9961L60.4797 87.134C60.4321 87.1124 60.3922 87.0906 60.3607 87.072C60.3293 87.0533 60.3036 87.0363 60.2848 87.0232C60.2662 87.0103 60.2516 86.9994 60.2432 86.993C60.2389 86.9897 60.2354 86.9871 60.2333 86.9855C60.2315 86.984 60.2299 86.9828 60.2302 86.9831C60.2302 86.9831 60.2302 86.9831 60.2303 86.9831C60.2303 86.9831 60.2304 86.9832 60.2305 86.9833C60.2306 86.9834 60.2308 86.9836 60.2311 86.9838C60.2317 86.9842 60.2326 86.9849 60.2337 86.9858C60.2359 86.9875 60.2395 86.9902 60.244 86.9936C60.2526 87.0002 60.2674 87.0113 60.2863 87.0244C60.3053 87.0376 60.3313 87.0548 60.363 87.0736C60.3948 87.0924 60.435 87.1143 60.4827 87.136L61 85.998L61.5173 84.8601C61.5648 84.8817 61.6047 84.9035 61.6362 84.9221C61.6677 84.9407 61.6934 84.9578 61.7122 84.9708C61.7308 84.9838 61.7454 84.9947 61.7538 85.0011C61.7582 85.0044 61.7617 85.0071 61.7637 85.0086C61.7656 85.0101 61.7672 85.0113 61.7669 85.0111C61.7669 85.0111 61.7668 85.0111 61.7668 85.011C61.7668 85.011 61.7667 85.0109 61.7666 85.0109C61.7665 85.0108 61.7662 85.0106 61.766 85.0104C61.7654 85.0099 61.7645 85.0092 61.7634 85.0084C61.7612 85.0067 61.7576 85.0039 61.7531 85.0005C61.7445 84.994 61.7297 84.9829 61.7108 84.9698C61.6918 84.9566 61.6659 84.9394 61.6342 84.9206C61.6024 84.9018 61.5622 84.8799 61.5145 84.8582L60.9971 85.9961ZM61 85.998V84.748H32.875V85.998V87.248H61V85.998ZM32.875 85.998L32.875 84.748C24.2456 84.748 17.2501 77.7524 17.25 69.123L16 69.123L14.75 69.1231C14.7501 79.1331 22.8649 87.248 32.875 87.248L32.875 85.998ZM16 69.123H17.25C17.25 60.4936 24.2455 53.4981 32.875 53.498L32.875 52.248L32.875 50.998C22.8648 50.9981 14.75 59.1129 14.75 69.123H16ZM32.875 52.248V53.498C34.3141 53.498 35.706 53.6927 37.0271 54.0559L37.3584 52.8506L37.6897 51.6453C36.1553 51.2235 34.5406 50.998 32.875 50.998V52.248ZM37.3584 52.8506L38.5402 53.2577C41.7506 43.9393 50.5951 37.2471 61 37.2471V35.9971V34.7471C49.4956 34.7471 39.7237 42.1475 36.1766 52.4434L37.3584 52.8506Z" fill="#ACDFFF" mask="url(#path-6-inside-1_674_63084)"/>
</g>
</g>
</g>
<defs>
<filter id="filter0_d_674_63084" x="6.00001" y="40.9981" width="65" height="53.75" filterUnits="userSpaceOnUse" color-interpolation-filters="sRGB">
<feFlood flood-opacity="0" result="BackgroundImageFix"/>
<feColorMatrix in="SourceAlpha" type="matrix" values="0 0 0 0 0 0 0 0 0 0 0 0 0 0 0 0 0 0 127 0" result="hardAlpha"/>
<feOffset dy="-1.25"/>
<feGaussianBlur stdDeviation="4.99999"/>
<feComposite in2="hardAlpha" operator="out"/>
<feColorMatrix type="matrix" values="0 0 0 0 0.414632 0 0 0 0 0.765853 0 0 0 0 1 0 0 0 0.55 0"/>
<feBlend mode="normal" in2="BackgroundImageFix" result="effect1_dropShadow_674_63084"/>
<feBlend mode="normal" in="SourceGraphic" in2="effect1_dropShadow_674_63084" result="shape"/>
</filter>
<linearGradient id="paint0_linear_674_63084" x1="29.2" y1="11.2" x2="54.4001" y2="65.2001" gradientUnits="userSpaceOnUse">
<stop stop-color="#FBE158"/>
<stop offset="1" stop-color="#EE9C27"/>
</linearGradient>
<linearGradient id="paint1_linear_674_63084" x1="54.125" y1="34.1221" x2="69.75" y2="73.497" gradientUnits="userSpaceOnUse">
<stop stop-color="#F0F9FF"/>
<stop offset="0.545228" stop-color="#E5F5FF"/>
<stop offset="1" stop-color="#BAE4FF"/>
</linearGradient>
<linearGradient id="paint2_linear_674_63084" x1="33.4996" y1="52.873" x2="42.2498" y2="82.2479" gradientUnits="userSpaceOnUse">
<stop stop-color="#E5F5FF"/>
<stop offset="1" stop-color="#BAE4FF"/>
</linearGradient>
</defs>
</svg>
