<svg width="96" height="96" viewBox="0 0 96 96" fill="none" xmlns="http://www.w3.org/2000/svg">
<mask id="mask0_674_63081" style="mask-type:alpha" maskUnits="userSpaceOnUse" x="8" y="8" width="80" height="58">
<path d="M59.4287 8C75.2081 8.00011 87.9999 20.792 88 36.5713C88 52.3506 75.2081 65.1425 59.4287 65.1426C59.3796 65.1426 59.3303 65.1409 59.2812 65.1406H27.2861C16.6349 65.1406 8 56.5065 8 45.8555C8 35.2044 16.6349 26.5703 27.2861 26.5703C29.0603 26.5704 30.7785 26.8102 32.4102 27.2588C36.2723 16.0519 46.91 8 59.4287 8Z" fill="#D9D9D9"/>
</mask>
<g mask="url(#mask0_674_63081)">
<ellipse cx="59.4307" cy="36.5643" rx="28.5713" ry="28.5711" fill="url(#paint0_linear_674_63081)"/>
<g filter="url(#filter0_d_674_63081)">
<path d="M27.2852 26.5625C37.9362 26.5625 46.5711 35.1967 46.5713 45.8477C46.5713 46.0872 46.5653 46.326 46.5566 46.5635L46.5713 47.3604C46.8728 55.5333 51.8165 61.675 59.4277 65.1348H27.2861L27.2871 65.1328L27.2852 65.1338C16.6342 65.1335 8 56.4986 8 45.8477C8.00018 35.1969 16.6343 26.5628 27.2852 26.5625Z" fill="url(#paint1_linear_674_63081)"/>
</g>
<g opacity="0.3">
<mask id="path-4-inside-1_674_63081" fill="white">
<path d="M59.4287 7.99316C75.208 7.99325 87.9998 20.7843 88 36.5635C88 52.3428 75.2081 65.1347 59.4287 65.1348C59.4014 65.1348 59.374 65.1339 59.3467 65.1338H27.2861C16.6349 65.1338 8 56.4987 8 45.8477C8.00011 35.1967 16.635 26.5625 27.2861 26.5625C29.0604 26.5625 30.7784 26.8033 32.4102 27.252C36.272 16.0447 46.9097 7.99316 59.4287 7.99316Z"/>
</mask>
<path d="M59.4287 7.99316L59.4287 6.5646H59.4287V7.99316ZM88 36.5635H89.4286V36.5635L88 36.5635ZM59.4287 65.1348V66.5633H59.4287L59.4287 65.1348ZM59.3467 65.1338L59.3507 63.7052H59.3467V65.1338ZM8 45.8477L6.57144 45.8476V45.8477H8ZM27.2861 26.5625L27.2862 25.1339H27.2861V26.5625ZM32.4102 27.252L32.0314 28.6294L33.324 28.9848L33.7608 27.7174L32.4102 27.252ZM59.4287 7.99316L59.4287 9.42172C74.4191 9.42181 86.5713 21.5733 86.5714 36.5635L88 36.5635L89.4286 36.5635C89.4284 19.9953 75.9969 6.56469 59.4287 6.5646L59.4287 7.99316ZM88 36.5635H86.5714C86.5714 51.5538 74.4192 63.7061 59.4287 63.7062L59.4287 65.1348L59.4287 66.5633C75.9971 66.5632 89.4286 53.1318 89.4286 36.5635H88ZM59.4287 65.1348V63.7062C59.429 63.7062 59.4269 63.7062 59.4122 63.706C59.4012 63.7058 59.3766 63.7053 59.3507 63.7052L59.3467 65.1338L59.3427 66.5623C59.3425 66.5623 59.3437 66.5623 59.3473 66.5624C59.3513 66.5625 59.3555 66.5625 59.3632 66.5627C59.3758 66.5629 59.4011 66.5633 59.4287 66.5633V65.1348ZM59.3467 65.1338V63.7052H27.2861V65.1338V66.5623H59.3467V65.1338ZM27.2861 65.1338V63.7052C17.4239 63.7052 9.42856 55.7098 9.42856 45.8477H8H6.57144C6.57144 57.2877 15.846 66.5623 27.2861 66.5623V65.1338ZM8 45.8477L9.42856 45.8477C9.42866 35.9857 17.4239 27.9911 27.2861 27.9911V26.5625V25.1339C15.8461 25.1339 6.57156 34.4076 6.57144 45.8476L8 45.8477ZM27.2861 26.5625L27.2861 27.9911C28.9306 27.9911 30.5213 28.2142 32.0314 28.6294L32.4102 27.252L32.7889 25.8745C31.0355 25.3924 29.1902 25.134 27.2862 25.1339L27.2861 26.5625ZM32.4102 27.252L33.7608 27.7174C37.4302 17.0686 47.5379 9.42172 59.4287 9.42172V7.99316V6.5646C46.2815 6.5646 35.1139 15.0207 31.0595 26.7865L32.4102 27.252Z" fill="#ACDFFF" mask="url(#path-4-inside-1_674_63081)"/>
</g>
</g>
<path d="M28.67 75.7969L22.0078 84.7238" stroke="url(#paint2_linear_674_63081)" stroke-width="4.59487" stroke-linecap="round"/>
<mask id="path-7-inside-2_674_63081" fill="white">
<path d="M48 73.1426C49.0345 73.1426 49.873 73.9812 49.8731 75.0156V77.3633L51.5606 76.3896C52.4565 75.8724 53.6019 76.1793 54.1192 77.0752C54.6364 77.9711 54.3296 79.1165 53.4336 79.6338L51.7461 80.6074L53.5245 81.6348C54.4204 82.152 54.7273 83.2974 54.21 84.1934C53.6927 85.0891 52.5473 85.3961 51.6514 84.8789L49.8731 83.8516V85.5059C49.873 86.5404 49.0346 87.3789 48 87.3789C46.9656 87.3789 46.127 86.5403 46.127 85.5059V83.8525L44.3496 84.8789C43.4537 85.3962 42.3073 85.0893 41.7901 84.1934C41.2729 83.2974 41.5807 82.152 42.4766 81.6348L44.2539 80.6074L42.5664 79.6338C41.6709 79.1165 41.3639 77.971 41.8809 77.0752C42.3982 76.1793 43.5445 75.8724 44.4405 76.3896L46.127 77.3633V75.0156C46.1271 73.9812 46.9656 73.1426 48 73.1426Z"/>
</mask>
<path d="M48 73.1426C49.0345 73.1426 49.873 73.9812 49.8731 75.0156V77.3633L51.5606 76.3896C52.4565 75.8724 53.6019 76.1793 54.1192 77.0752C54.6364 77.9711 54.3296 79.1165 53.4336 79.6338L51.7461 80.6074L53.5245 81.6348C54.4204 82.152 54.7273 83.2974 54.21 84.1934C53.6927 85.0891 52.5473 85.3961 51.6514 84.8789L49.8731 83.8516V85.5059C49.873 86.5404 49.0346 87.3789 48 87.3789C46.9656 87.3789 46.127 86.5403 46.127 85.5059V83.8525L44.3496 84.8789C43.4537 85.3962 42.3073 85.0893 41.7901 84.1934C41.2729 83.2974 41.5807 82.152 42.4766 81.6348L44.2539 80.6074L42.5664 79.6338C41.6709 79.1165 41.3639 77.971 41.8809 77.0752C42.3982 76.1793 43.5445 75.8724 44.4405 76.3896L46.127 77.3633V75.0156C46.1271 73.9812 46.9656 73.1426 48 73.1426Z" fill="url(#paint3_linear_674_63081)"/>
<path d="M48 73.1426V72.592H48L48 73.1426ZM49.8731 75.0156H50.4237V75.0156L49.8731 75.0156ZM49.8731 77.3633H49.3225V78.3166L50.1482 77.8402L49.8731 77.3633ZM51.5606 76.3896L51.8357 76.8666L51.8359 76.8665L51.5606 76.3896ZM54.1192 77.0752L54.596 76.7999L54.596 76.7999L54.1192 77.0752ZM53.4336 79.6338L53.7088 80.1107L53.7089 80.1106L53.4336 79.6338ZM51.7461 80.6074L51.471 80.1305L50.6449 80.6071L51.4707 81.0842L51.7461 80.6074ZM53.5245 81.6348L53.249 82.1115L53.2492 82.1116L53.5245 81.6348ZM54.21 84.1934L54.6868 84.4687L54.6868 84.4687L54.21 84.1934ZM51.6514 84.8789L51.376 85.3557L51.3761 85.3557L51.6514 84.8789ZM49.8731 83.8516L50.1485 83.3748L49.3225 82.8976V83.8516H49.8731ZM49.8731 85.5059L50.4237 85.5059V85.5059H49.8731ZM48 87.3789L48 87.9295H48V87.3789ZM46.127 85.5059H45.5764V85.5059L46.127 85.5059ZM46.127 83.8525H46.6776V82.8988L45.8516 83.3757L46.127 83.8525ZM44.3496 84.8789L44.6249 85.3557L44.625 85.3557L44.3496 84.8789ZM41.7901 84.1934L41.3132 84.4686L41.3132 84.4687L41.7901 84.1934ZM42.4766 81.6348L42.7519 82.1116L42.7521 82.1115L42.4766 81.6348ZM44.2539 80.6074L44.5295 81.0841L45.3549 80.607L44.5291 80.1305L44.2539 80.6074ZM42.5664 79.6338L42.291 80.1106L42.2913 80.1107L42.5664 79.6338ZM41.8809 77.0752L41.4041 76.7999L41.404 76.8L41.8809 77.0752ZM44.4405 76.3896L44.1652 76.8665L44.1652 76.8665L44.4405 76.3896ZM46.127 77.3633L45.8517 77.8401L46.6776 78.3169V77.3633H46.127ZM46.127 75.0156L45.5764 75.0156V75.0156H46.127ZM48 73.1426V73.6932C48.7304 73.6932 49.3224 74.2852 49.3225 75.0157L49.8731 75.0156L50.4237 75.0156C50.4236 73.6771 49.3387 72.592 48 72.592V73.1426ZM49.8731 75.0156H49.3225V77.3633H49.8731H50.4237V75.0156H49.8731ZM49.8731 77.3633L50.1482 77.8402L51.8357 76.8666L51.5606 76.3896L51.2854 75.9127L49.5979 76.8864L49.8731 77.3633ZM51.5606 76.3896L51.8359 76.8665C52.4685 76.5013 53.2771 76.7179 53.6424 77.3505L54.1192 77.0752L54.596 76.7999C53.9267 75.6407 52.4446 75.2435 51.2853 75.9128L51.5606 76.3896ZM54.1192 77.0752L53.6423 77.3505C54.0076 77.9831 53.7909 78.7917 53.1583 79.157L53.4336 79.6338L53.7089 80.1106C54.8682 79.4413 55.2653 77.9592 54.596 76.7999L54.1192 77.0752ZM53.4336 79.6338L53.1585 79.1569L51.471 80.1305L51.7461 80.6074L52.0213 81.0843L53.7088 80.1107L53.4336 79.6338ZM51.7461 80.6074L51.4707 81.0842L53.249 82.1115L53.5245 81.6348L53.7999 81.158L52.0216 80.1307L51.7461 80.6074ZM53.5245 81.6348L53.2492 82.1116C53.8817 82.4768 54.0984 83.2855 53.7332 83.9181L54.21 84.1934L54.6868 84.4687C55.3561 83.3094 54.9591 81.8273 53.7997 81.1579L53.5245 81.6348ZM54.21 84.1934L53.7332 83.918C53.3679 84.5505 52.5591 84.7672 51.9267 84.4021L51.6514 84.8789L51.3761 85.3557C52.5354 86.025 54.0174 85.6277 54.6868 84.4687L54.21 84.1934ZM51.6514 84.8789L51.9268 84.4021L50.1485 83.3748L49.8731 83.8516L49.5977 84.3283L51.376 85.3557L51.6514 84.8789ZM49.8731 83.8516H49.3225V85.5059H49.8731H50.4237V83.8516H49.8731ZM49.8731 85.5059L49.3225 85.5058C49.3225 86.2363 48.7305 86.8283 48 86.8283V87.3789V87.9295C49.3387 87.9295 50.4236 86.8444 50.4237 85.5059L49.8731 85.5059ZM48 87.3789L48.0001 86.8283C47.2696 86.8283 46.6776 86.2362 46.6776 85.5058L46.127 85.5059L45.5764 85.5059C45.5764 86.8444 46.6615 87.9294 48 87.9295L48 87.3789ZM46.127 85.5059H46.6776V83.8525H46.127H45.5764V85.5059H46.127ZM46.127 83.8525L45.8516 83.3757L44.0743 84.4021L44.3496 84.8789L44.625 85.3557L46.4023 84.3293L46.127 83.8525ZM44.3496 84.8789L44.0743 84.4021C43.4416 84.7674 42.6321 84.5505 42.2669 83.9181L41.7901 84.1934L41.3132 84.4687C41.9826 85.6281 43.4658 86.025 44.6249 85.3557L44.3496 84.8789ZM41.7901 84.1934L42.2669 83.9181C41.902 83.2859 42.1189 82.477 42.7519 82.1116L42.4766 81.6348L42.2013 81.1579C41.0424 81.827 40.6438 83.309 41.3132 84.4686L41.7901 84.1934ZM42.4766 81.6348L42.7521 82.1115L44.5295 81.0841L44.2539 80.6074L43.9784 80.1307L42.2011 81.1581L42.4766 81.6348ZM44.2539 80.6074L44.5291 80.1305L42.8416 79.1569L42.5664 79.6338L42.2913 80.1107L43.9788 81.0843L44.2539 80.6074ZM42.5664 79.6338L42.8419 79.157C42.2095 78.7917 41.9928 77.9829 42.3578 77.3504L41.8809 77.0752L41.404 76.8C40.7351 77.9591 41.1323 79.4412 42.291 80.1106L42.5664 79.6338ZM41.8809 77.0752L42.3577 77.3505C42.7229 76.718 43.5324 76.5012 44.1652 76.8665L44.4405 76.3896L44.7158 75.9128C43.5566 75.2436 42.0735 75.6405 41.4041 76.7999L41.8809 77.0752ZM44.4405 76.3896L44.1652 76.8665L45.8517 77.8401L46.127 77.3633L46.4023 76.8864L44.7157 75.9128L44.4405 76.3896ZM46.127 77.3633H46.6776V75.0156H46.127H45.5764V77.3633H46.127ZM46.127 75.0156L46.6776 75.0157C46.6777 74.2853 47.2697 73.6932 48.0001 73.6932L48 73.1426L48 72.592C46.6615 72.592 45.5765 73.6771 45.5764 75.0156L46.127 75.0156Z" fill="#85CFFF" fill-opacity="0.2" mask="url(#path-7-inside-2_674_63081)"/>
<path d="M73.9825 75.7969L67.3203 84.7238" stroke="url(#paint4_linear_674_63081)" stroke-width="4.59487" stroke-linecap="round"/>
<defs>
<filter id="filter0_d_674_63081" x="-3.42848" y="13.7055" width="74.2866" height="61.4292" filterUnits="userSpaceOnUse" color-interpolation-filters="sRGB">
<feFlood flood-opacity="0" result="BackgroundImageFix"/>
<feColorMatrix in="SourceAlpha" type="matrix" values="0 0 0 0 0 0 0 0 0 0 0 0 0 0 0 0 0 0 127 0" result="hardAlpha"/>
<feOffset dy="-1.42856"/>
<feGaussianBlur stdDeviation="5.71424"/>
<feComposite in2="hardAlpha" operator="out"/>
<feColorMatrix type="matrix" values="0 0 0 0 0.414632 0 0 0 0 0.765853 0 0 0 0 1 0 0 0 0.55 0"/>
<feBlend mode="normal" in2="BackgroundImageFix" result="effect1_dropShadow_674_63081"/>
<feBlend mode="normal" in="SourceGraphic" in2="effect1_dropShadow_674_63081" result="shape"/>
</filter>
<linearGradient id="paint0_linear_674_63081" x1="51.5736" y1="5.85033" x2="69.4304" y2="50.8499" gradientUnits="userSpaceOnUse">
<stop stop-color="#F0F9FF"/>
<stop offset="0.545228" stop-color="#E5F5FF"/>
<stop offset="1" stop-color="#BAE4FF"/>
</linearGradient>
<linearGradient id="paint1_linear_674_63081" x1="27.9997" y1="27.2768" x2="38.0002" y2="60.8488" gradientUnits="userSpaceOnUse">
<stop stop-color="#E5F5FF"/>
<stop offset="1" stop-color="#BAE4FF"/>
</linearGradient>
<linearGradient id="paint2_linear_674_63081" x1="27.1773" y1="72.1225" x2="23.5014" y2="87.7451" gradientUnits="userSpaceOnUse">
<stop stop-color="#7CBEFB"/>
<stop offset="1" stop-color="#54A5F0"/>
</linearGradient>
<linearGradient id="paint3_linear_674_63081" x1="48.0002" y1="73.1426" x2="48.0002" y2="87.3789" gradientUnits="userSpaceOnUse">
<stop stop-color="#CFEBFD"/>
<stop offset="1" stop-color="#81C2FF"/>
</linearGradient>
<linearGradient id="paint4_linear_674_63081" x1="72.4898" y1="72.1225" x2="68.8139" y2="87.7451" gradientUnits="userSpaceOnUse">
<stop stop-color="#7CBEFB"/>
<stop offset="1" stop-color="#54A5F0"/>
</linearGradient>
</defs>
</svg>
