<svg width="250" height="70" viewBox="0 0 250 70" fill="none" xmlns="http://www.w3.org/2000/svg">
<g clip-path="url(#clip0_674_63223)">
<path d="M66.6534 29.583H59.7109V38.8641H66.6534V29.583Z" fill="#4FC2F1"/>
<path d="M22 57L21 50.5L18 48L6.5 40L9 34.5L15 31L42.5 19L62 10.5L82 25.5C84.8333 25.8333 91.5134 28.6484 94 33C95.3257 35.32 95.5 36.5 95 38L94.5 39L92 40.5L79.5 50.5L53 67.5C48.8333 67.6667 39.9 67.7 37.5 66.5C35.1 65.3 32.8333 63.6667 32 63L31.5 62C29.6667 60.8333 25.7 58.5 24.5 58.5C23.3 58.5 22.3333 57.5 22 57Z" fill="white"/>
<path d="M79.3263 38.865H69.783V53.7042H66.6578V38.865H59.7154V53.7042H56.5902V38.865H4.00781L5.04604 40.8575C6.00036 42.5879 6.77641 42.6823 6.77641 42.6823C9.81767 43.0284 12.0724 47.6322 12.0724 47.6322C14.2432 52.8338 15.8058 51.7956 15.8058 51.7956C19.1932 52.4038 20.1475 54.4803 20.1475 54.4803C20.8396 55.6129 21.5318 56.4728 22.0561 57.165C24.6569 55.5185 31.2533 51.7851 36.1089 52.1312C36.1089 52.1312 39.9262 51.869 44.0896 55.3402C44.0896 55.3402 45.6521 56.6406 48.2529 56.5567C48.2529 56.5567 51.7242 56.4728 51.9864 52.4773C51.9864 52.4773 50.7699 54.732 47.6447 53.0855C47.6447 53.0855 45.0439 51.7851 46.2604 48.4817C46.2604 48.4817 47.6447 45.0943 51.3781 45.8809C51.3781 45.8809 54.9332 46.3108 54.8493 51.4285C54.8493 51.4285 54.8493 57.5845 50.8537 59.0632C50.8537 59.0632 46.9525 60.804 42.1809 57.1545C42.1809 57.1545 36.5388 51.8585 28.9042 55.508C28.9042 55.508 26.0412 56.7245 23.3565 58.2871C23.9648 58.8115 24.3948 58.8954 24.3948 58.8954C25.6952 59.0632 26.3034 60.028 26.3034 60.028C27.2577 61.5906 28.3904 61.4123 28.3904 61.4123C31.0751 62.0205 32.2077 63.4992 32.2077 63.4992C32.5537 63.7614 33.0781 64.1075 33.592 64.3696C35.4167 63.4992 40.094 61.5067 42.7053 62.6393C42.7053 62.6393 44.3517 63.6775 46.2604 65.5861C46.2604 65.5861 41.4888 61.7688 37.0632 64.6318L35.8467 65.67C36.8849 66.1944 37.7553 66.5405 37.7553 66.5405C45.8199 70.62 54.8493 70.19 54.8493 70.19C60.9214 70.0117 66.9095 67.4948 66.9095 67.4948C73.852 64.6318 78.7914 60.6362 78.7914 60.6362L80.5218 59.0736C84.9474 55.8646 84.1713 51.6068 84.1713 51.6068C83.3953 47.1813 88.3347 45.5348 88.3347 45.5348C92.4142 43.8044 92.582 42.0635 92.582 42.0635C92.9281 40.3332 94.0607 39.7249 94.0607 39.7249C94.3228 39.4627 94.4906 39.1167 94.6689 38.8545H79.3158L79.3263 38.865Z" fill="#0B318F"/>
<path d="M47.7344 25.8504V38.8649H56.5855V19.3379C55.2012 20.5544 52.2438 22.9874 47.7344 25.8504Z" fill="#4FC2F1"/>
<path d="M15.9829 32.8766C15.9829 32.8766 19.1919 33.0549 21.1006 34.9636C21.1006 34.9636 41.4036 28.6294 56.589 16.0448H69.7713V22.9873C77.9302 27.1507 87.9874 31.9223 94.5838 33.9149L94.4999 33.831C93.8916 33.0444 93.7238 31.1358 93.7238 31.1358C93.8916 28.7971 91.6369 28.0945 91.6369 28.0945C87.9874 27.0563 88.3439 24.8016 88.3439 24.8016C87.8196 20.1977 84.3483 19.6838 84.3483 19.6838C80.2689 17.513 77.5842 11.9653 77.5842 11.9653C76.2838 9.53232 74.3751 9.28063 74.3751 9.28063C73.2425 8.93455 72.0365 7.63415 72.0365 7.63415C70.2117 5.80939 68.0409 5.6416 68.0409 5.6416C65.1779 4.94945 64.2236 3.91122 64.2236 3.91122C61.9688 2.00257 60.5741 2.9569 60.5741 2.9569C58.8437 3.56515 58.3193 2.9569 58.3193 2.9569C57.5328 2.26475 56.4107 2.43254 56.4107 2.43254C51.1147 2.43254 49.0382 0.786063 49.0382 0.786063C43.0501 -1.55256 39.7571 1.04824 39.7571 1.04824C36.8942 2.9569 34.9855 3.38687 34.9855 3.38687C29.6895 5.03335 28.3052 9.37501 28.3052 9.37501C27.0887 11.0215 24.9179 14.4927 24.9179 14.4927C21.3627 19.2644 14.4203 19.8726 14.4203 19.8726C8.87259 19.8726 6.95345 27.9372 6.95345 27.9372C5.56915 31.9328 4.26874 34.0092 4.26874 34.0092C2.53837 37.4805 3.92267 38.7809 3.92267 38.7809L4.00657 38.8648H8.43213C8.51603 38.6026 10.0786 32.8766 15.9829 32.8766Z" fill="#4FC2F1"/>
<path d="M22.3152 37.0507C22.3152 37.0507 22.9234 37.8267 22.7451 38.8754H32.3723V33.6738C29.2472 34.8903 25.9542 36.0125 22.3047 37.0612L22.3152 37.0507Z" fill="#4FC2F1"/>
<path d="M33.8672 33.0549V38.8648H46.2734V26.7207C42.8861 28.8076 38.7227 30.968 33.8672 33.0549Z" fill="#4FC2F1"/>
<path d="M37.2414 19.4321C37.2414 19.4321 37.5874 13.5279 39.4961 12.5736C39.4961 12.5736 40.7965 12.3114 41.2265 13.7062L42.3591 11.7975C42.3591 11.7975 39.4961 11.7975 40.7126 10.4132C40.7126 10.4132 42.1913 9.54278 42.1913 7.89631C42.1913 7.89631 42.1913 5.3794 45.3164 4.94943C45.3164 4.94943 42.0235 3.56513 40.4609 7.55023C40.4609 7.55023 39.7688 10.2349 37.944 9.72106C37.944 9.72106 36.0353 8.58846 35.6893 9.55327C35.6893 9.55327 35.8676 10.5076 37.0736 11.032C37.0736 11.032 38.0279 11.808 36.9897 13.2028C36.9897 13.2028 32.9941 18.3205 37.2519 19.4531L37.2414 19.4321Z" fill="white"/>
<path d="M79.3245 38.8648V30.7058C76.3776 29.2271 73.1686 27.5806 69.7812 25.7559V38.8543H79.3245V38.8648Z" fill="#4FC2F1"/>
<path d="M80.8047 31.4082V38.875H94.6896C94.8679 38.3507 95.0357 37.9207 95.1196 37.4907C92.6866 36.5364 87.485 34.5439 80.8047 31.4187V31.4082Z" fill="#4FC2F1"/>
<path d="M56.5859 16.0449V19.3484V38.8649H59.7111V29.5838H66.6536V38.8649H69.7787V25.7665V22.9874V16.0449H56.5859Z" fill="#E60012"/>
<path d="M66.6579 19.0859H62.1484C63.4488 19.7781 65.0114 20.5646 66.6579 21.4246V19.0859Z" fill="#4FC2F1"/>
<path d="M59.7109 26.3741H66.6534V24.0355C64.3987 22.7351 62.0496 21.3403 59.7109 19.8721V26.3846V26.3741Z" fill="#4FC2F1"/>
<path d="M62.1439 19.0859H59.7109V20.0927L66.6534 24.0359V21.4246L62.1439 19.0859Z" fill="white"/>
<g filter="url(#filter0_d_674_63223)">
<path d="M247.685 31.0832V37.2916H230.088V45.5764H223.104V37.2916H205.244V31.0832H238.635V21.7707H206.796V15.5623H245.62V31.0937H247.696L247.685 31.0832ZM213.781 51.2709V40.1441H206.796V53.5991C206.796 54.889 207.058 55.9272 207.572 56.4411C208.097 56.9549 208.862 57.2171 210.163 57.2171H245.62V51.2604H213.791L213.781 51.2709Z" fill="white"/>
<path fill-rule="evenodd" clip-rule="evenodd" d="M145.195 53.6092C145.195 54.8991 144.681 55.9381 144.156 56.452C143.642 56.9656 142.866 57.2273 141.566 57.2273H111.804C110.766 57.2273 109.728 56.9656 109.214 56.452C108.7 55.9381 108.438 54.8991 108.438 53.6092V38.8543H145.195V53.6092ZM115.433 51.2693H138.211V45.0604H115.433V51.2693Z" fill="white"/>
<path d="M113.094 27.9891H138.2V15.5623H145.195V22.8094H150.627V28.7654H145.195V36.5369H138.2V34.2088H109.476C108.438 34.2088 107.41 33.9566 106.886 33.4324C106.372 32.9081 106.109 31.8803 106.109 30.5799V15.5623H113.094V27.9891Z" fill="white"/>
<path d="M185.833 28.7646H188.674V15.5615H195.408V57.4893H188.674V34.9736H185.833V57.4893H179.362V15.5615H185.833V28.7646Z" fill="white"/>
<path fill-rule="evenodd" clip-rule="evenodd" d="M169.011 17.3652H176.772V23.3223H173.919C174.695 24.3604 175.472 25.9123 175.734 27.2021C176.248 28.7541 176.509 30.3064 176.509 31.8584C176.509 36.0008 175.471 39.1053 173.668 41.9473C171.853 44.7997 169.011 46.3515 165.645 46.3516C162.017 46.3516 159.174 44.7998 157.108 41.9473C155.556 39.1053 154.518 35.9902 154.518 31.8584C154.518 30.3064 154.78 28.7541 155.032 27.2021C155.546 25.9124 156.07 24.3604 156.584 23.3223H153.994V17.3652H161.502V13.4854H169.011V17.3652ZM165.382 23.8477C163.82 23.8478 162.792 24.6241 162.016 26.4277C161.24 27.9798 160.726 29.7945 160.726 31.8604C160.726 34.1883 161.24 36.0027 162.016 37.5547C162.792 39.1066 163.831 39.8827 165.382 39.8828C166.934 39.8828 167.973 39.1067 169.011 37.5547C169.787 36.0027 170.049 34.1883 170.049 31.8604C170.049 29.7839 169.787 27.9798 169.011 26.4277C167.973 24.6135 166.945 23.8477 165.382 23.8477Z" fill="white"/>
</g>
</g>
<defs>
<filter id="filter0_d_674_63223" x="104.109" y="11.4854" width="145.586" height="48.0039" filterUnits="userSpaceOnUse" color-interpolation-filters="sRGB">
<feFlood flood-opacity="0" result="BackgroundImageFix"/>
<feColorMatrix in="SourceAlpha" type="matrix" values="0 0 0 0 0 0 0 0 0 0 0 0 0 0 0 0 0 0 127 0" result="hardAlpha"/>
<feOffset/>
<feGaussianBlur stdDeviation="1"/>
<feComposite in2="hardAlpha" operator="out"/>
<feColorMatrix type="matrix" values="0 0 0 0 0 0 0 0 0 0 0 0 0 0 0 0 0 0 0.5 0"/>
<feBlend mode="normal" in2="BackgroundImageFix" result="effect1_dropShadow_674_63223"/>
<feBlend mode="normal" in="SourceGraphic" in2="effect1_dropShadow_674_63223" result="shape"/>
</filter>
<clipPath id="clip0_674_63223">
<rect width="250" height="70" fill="white"/>
</clipPath>
</defs>
</svg>
