<svg width="46" height="46" viewBox="0 0 46 46" fill="none" xmlns="http://www.w3.org/2000/svg">
<path d="M22.077 31.793C22.2113 31.7932 22.3093 31.9032 22.3094 32.0254C22.3094 32.1476 22.1992 32.2575 22.077 32.2578H21.0731C20.9384 32.2578 20.8406 32.1478 20.8406 32.0254C20.8407 31.903 20.9507 31.793 21.0731 31.793H22.077Z" fill="white"/>
<path fill-rule="evenodd" clip-rule="evenodd" d="M23.3123 0.950195C23.4346 0.96247 23.5577 0.999409 23.6922 1.06055C24.2794 1.32989 24.6716 1.88073 25.1121 2.3457C25.9442 3.2143 27.0209 3.6675 27.9998 4.30371C28.734 4.78095 29.4809 5.27084 30.0194 5.95605C30.7413 6.8617 31.0479 8.03667 31.3416 9.1748C32.9573 7.43716 36.8985 8.0853 38.6854 9.08887C39.75 9.68851 40.8147 10.4107 42.0262 10.5332C42.3198 10.5577 42.6262 10.5582 42.8709 10.7295C43.4458 11.1212 43.1644 11.9906 42.9686 12.6514C42.3936 14.6583 42.8461 16.6531 42.369 18.709C42.1732 19.5534 41.7449 20.533 41.1697 21.1816C40.6313 21.8057 39.9824 22.4543 39.3338 22.9561C39.4329 22.9937 40.1535 23.5199 40.2391 23.6055C41.4139 24.6824 41.9408 25.478 42.2957 27.0078L42.3084 26.9951C42.7857 29.0513 42.3938 31.2794 42.9813 33.2744C43.1648 33.935 43.4456 34.8036 42.8836 35.1953C42.639 35.3666 42.3325 35.3672 42.0389 35.3916C40.8151 35.514 39.7618 36.2362 38.6971 36.8359C36.8979 37.8271 32.9578 38.4873 31.3543 36.75C31.0728 37.8759 30.7663 39.0508 30.032 39.9688C29.4813 40.6541 28.7468 41.1438 28.0125 41.6211C27.0335 42.2697 25.9438 42.7103 25.1238 43.5791C24.6833 44.0441 24.2912 44.6072 23.7039 44.8643C23.5696 44.9253 23.4472 44.9623 23.325 44.9746H23.2391C23.1169 44.9624 22.9946 44.9253 22.8602 44.8643C22.2728 44.595 21.8808 44.0442 21.4403 43.5791C20.6081 42.7102 19.5306 42.2574 18.5516 41.6211C17.8173 41.1438 17.0706 40.654 16.5321 39.9688C15.8101 39.0631 15.5045 37.8881 15.2108 36.75C13.5954 38.4878 9.65422 37.8394 7.86701 36.8359C6.8023 36.2363 5.73675 35.5141 4.52521 35.3916C4.23164 35.3671 3.92517 35.3665 3.68049 35.1953C3.10595 34.8036 3.38706 33.9351 3.58283 33.2744C4.17027 31.2794 3.77934 29.0513 4.25666 26.9951C4.50147 25.9428 5.05168 25.1226 5.81037 24.3271C6.33656 23.7643 6.7405 23.4209 7.35236 23.0293C6.91238 22.7604 6.99704 22.7605 6.56916 22.5771C6.25127 22.4426 5.79896 21.9413 5.59064 21.7695C4.74618 21.0719 4.48874 19.9822 4.24396 18.9297C3.76668 16.8737 4.15833 14.6462 3.57111 12.6514C3.38753 11.9905 3.10583 11.1212 3.66877 10.7295C3.91351 10.5583 4.21985 10.5577 4.5135 10.5332C5.73714 10.4106 6.78969 9.68848 7.85432 9.08887C9.65358 8.09759 13.5948 7.43703 15.1981 9.1748C15.4796 8.04886 15.786 6.87394 16.5203 5.95605C17.0711 5.27085 17.8056 4.78096 18.5399 4.30371C19.5187 3.65531 20.6077 3.21434 21.4276 2.3457C21.8681 1.88069 22.2602 1.31757 22.8475 1.06055C22.982 0.999431 23.1051 0.962426 23.2274 0.950195H23.3123ZM17.0789 29.2715C17.285 29.4591 17.4255 29.6866 17.5604 29.8965C17.6459 30.0308 17.7312 30.1659 17.8289 30.2881C17.988 30.4836 18.2093 30.5818 18.4539 30.7041C18.6741 30.802 18.9194 30.9245 19.1395 31.1201C19.3961 31.3525 19.5425 31.6469 19.6893 31.9404C19.7504 32.0627 19.8122 32.1854 19.8856 32.3076C20.0692 32.6133 20.3512 32.7608 20.6815 32.9443C20.7547 32.981 20.8407 33.0303 20.9139 33.0791C20.947 33.0982 20.9781 33.1196 21.0096 33.1396H24.7322C24.8669 33.1396 24.9647 33.2497 24.9647 33.3721C24.9646 33.4944 24.8546 33.6045 24.7322 33.6045H21.5662C21.7328 33.7789 21.8843 33.9652 22.0399 34.1553C22.1009 34.2407 22.1741 34.315 22.2352 34.4004C22.3452 34.5349 22.444 34.6576 22.5662 34.7432C22.713 34.8531 22.921 34.9389 23.1287 34.9756C23.2509 35 23.3494 35 23.4715 34.9756C23.6793 34.9389 23.8882 34.8532 24.035 34.7432C24.1449 34.6576 24.2551 34.5347 24.3651 34.4004C24.4383 34.3149 24.5003 34.2407 24.5613 34.1553C24.8915 33.7517 25.1982 33.3604 25.6873 33.0791C25.7606 33.0303 25.8465 32.9931 25.9197 32.9443C26.2499 32.7609 26.5311 32.6131 26.7147 32.3076C26.7253 32.2917 26.7338 32.2743 26.744 32.2578H23.3006C23.166 32.2578 23.0682 32.1478 23.0682 32.0254C23.0683 31.903 23.1783 31.793 23.3006 31.793H26.9862C27.1109 31.55 27.2481 31.3135 27.4617 31.1201C27.6647 30.9398 27.8893 30.8225 28.0955 30.7285H19.1395C19.0048 30.7285 18.9071 30.6175 18.9071 30.4951C18.9073 30.3729 19.0172 30.2627 19.1395 30.2627H28.7713C28.7769 30.2627 28.7825 30.2633 28.7879 30.2637C28.8782 30.1477 28.9607 30.0225 29.0408 29.8965C29.1683 29.6865 29.3107 29.4592 29.5194 29.2715H17.0789ZM14.2557 33.0664C14.0529 33.0664 13.8885 33.2308 13.8885 33.4336C13.8888 33.6362 14.0531 33.8008 14.2557 33.8008H17.8787L17.9529 33.793C18.1198 33.7585 18.2457 33.6106 18.2459 33.4336C18.2459 33.2565 18.1199 33.1088 17.9529 33.0742L17.8787 33.0664H14.2557ZM28.8328 33.0664C28.63 33.0664 28.4656 33.2308 28.4656 33.4336C28.4659 33.6362 28.6302 33.8008 28.8328 33.8008H32.4559L32.5301 33.793C32.6968 33.7584 32.8228 33.6105 32.8231 33.4336C32.8231 33.2565 32.6969 33.1089 32.5301 33.0742L32.4559 33.0664H28.8328ZM13.4969 30.5078C13.2941 30.5078 13.1297 30.6722 13.1297 30.875C13.1297 31.0778 13.2941 31.2422 13.4969 31.2422H15.2108L15.284 31.2344C15.4514 31.2002 15.5779 31.0525 15.5779 30.875C15.5779 30.6975 15.4514 30.5498 15.284 30.5156L15.2108 30.5078H13.4969ZM31.4881 30.5078C31.2855 30.508 31.1209 30.6723 31.1209 30.875C31.1209 31.0777 31.2855 31.242 31.4881 31.2422H33.2137L33.2879 31.2344C33.4551 31.2 33.5809 31.0523 33.5809 30.875C33.5809 30.6977 33.4551 30.55 33.2879 30.5156L33.2137 30.5078H31.4881ZM29.0037 26.3711C28.8936 26.3711 28.7837 26.3715 28.6981 26.4326C28.6614 26.457 28.6249 26.4814 28.6004 26.5059C28.5515 26.5426 28.5019 26.579 28.4529 26.6035C28.3306 26.6769 28.1959 26.7011 28.0858 26.7256C28.0246 26.7378 27.9511 26.7509 27.9022 26.7754C27.7187 26.8489 27.5592 27.0196 27.4002 27.2031C27.3635 27.2521 27.3149 27.3012 27.2781 27.3379C27.0701 27.5582 26.8617 27.6316 26.6658 27.7051C26.5803 27.7417 26.495 27.7666 26.3973 27.8154C26.2749 27.8766 26.2007 28.0357 26.1151 28.207C26.0661 28.3049 26.017 28.4154 25.9559 28.501C25.8664 28.63 25.761 28.7189 25.659 28.8066H30.6805C30.7102 28.8066 30.738 28.8126 30.7635 28.8223C30.9948 28.742 31.2707 28.5026 31.5252 28.2812C31.6461 28.1805 31.7597 28.0804 31.8709 27.9932C31.8044 27.9017 31.7549 27.8048 31.7088 27.7178C31.6476 27.5831 31.586 27.4606 31.4881 27.3994C31.4392 27.375 31.3778 27.3506 31.3045 27.3262C31.1944 27.2895 31.0718 27.2521 30.9617 27.1787C30.8763 27.1175 30.8153 27.0318 30.7664 26.9707C30.742 26.9341 30.7176 26.9096 30.6932 26.873C30.5585 26.7384 30.3256 26.6652 30.1053 26.5918C30.0319 26.5673 29.9585 26.5421 29.8973 26.5176C29.6158 26.4197 29.3096 26.3711 29.0037 26.3711ZM23.3123 11.2314C22.9455 11.2316 22.6269 11.4395 22.2479 11.6719C21.9053 11.8799 21.513 12.1247 21.036 12.2471C20.5711 12.3571 20.1302 12.2473 19.702 12.1494C19.2982 12.0515 18.9181 11.954 18.5633 12.0762C18.2333 12.1864 18.0617 12.456 17.8416 12.7861C17.6337 13.1164 17.3888 13.4843 16.9608 13.7412C16.4469 14.0592 15.932 14.1809 15.4793 14.291C15.0144 14.4011 14.5977 14.5121 14.2918 14.8057C13.9986 15.0869 13.9009 15.3934 13.7664 15.7969C13.6441 16.1394 13.5214 16.5441 13.2401 16.96C12.9587 17.3758 12.6026 17.682 12.2479 17.9756C11.832 18.3303 11.428 18.6611 11.2322 19.1504C11.1101 19.4684 11.1097 19.7747 11.1219 20.166C11.1341 20.8023 11.1588 21.5868 10.5838 22.7002C10.3394 23.1648 10.1924 23.5565 10.119 23.9111C10.0579 24.1803 10.0452 24.4628 10.0819 24.7441C10.1063 24.9149 10.1185 24.9892 10.1307 25.0869C10.1309 25.1479 10.1556 25.2219 10.1678 25.3193V25.3799C10.2045 25.5268 10.2532 25.796 10.2654 25.8818C10.2655 25.9428 10.266 26.0044 10.2781 26.0654V26.3105H10.2654C10.2709 26.3149 10.3325 26.3627 10.4373 26.4209C10.5595 26.4818 10.7068 26.519 10.9022 26.5557C10.9995 26.5678 11.0732 26.5674 11.1463 26.5674C11.293 26.5674 11.4527 26.5678 11.6483 26.6289C11.9541 26.7269 12.1995 26.9102 12.4442 27.0938C12.6153 27.2282 12.7749 27.3505 12.9461 27.4238C13.1418 27.5094 13.3622 27.5463 13.5946 27.583C13.9371 27.632 14.3287 27.7061 14.659 27.9385C14.7935 28.0363 14.9293 28.159 15.076 28.2812C15.3051 28.4791 15.5702 28.7115 15.7947 28.8066H21.3944C21.4992 27.9138 22.1966 27.2276 23.0311 27.2275C23.8656 27.2275 24.563 27.9138 24.6678 28.8066H24.9764C24.9868 28.7897 24.9985 28.7729 25.0135 28.7578C25.0992 28.6721 25.1856 28.5988 25.2713 28.5254C25.3812 28.4399 25.4787 28.3662 25.5399 28.2686C25.5888 28.2074 25.6262 28.1208 25.6629 28.0352C25.7608 27.8151 25.8828 27.5823 26.1395 27.4355C26.2495 27.3744 26.36 27.3384 26.4578 27.3018C26.6292 27.2406 26.7641 27.1908 26.8865 27.0439C26.9232 27.0072 26.9719 26.9581 27.0086 26.9092C27.1922 26.7011 27.4005 26.4808 27.6942 26.3584C27.7797 26.3217 27.8654 26.3096 27.951 26.2852C28.0488 26.2607 28.1349 26.2368 28.1961 26.2002C28.2328 26.1757 28.2571 26.1504 28.2938 26.126C28.3426 26.0893 28.3919 26.0532 28.4529 26.0166C28.6243 25.9187 28.8207 25.9062 28.9676 25.9062C29.3346 25.9063 29.6895 25.9548 30.032 26.0771C30.0931 26.1016 30.1541 26.1264 30.2274 26.1387C30.4966 26.2243 30.7912 26.3217 31.0115 26.542C31.0482 26.5786 31.0843 26.6279 31.1209 26.6768C31.1576 26.7257 31.1945 26.7753 31.2313 26.7998C31.2802 26.8365 31.3419 26.8486 31.4276 26.873C31.5254 26.8975 31.6354 26.934 31.7332 26.9951C31.9413 27.1297 32.0391 27.3384 32.1248 27.5098C32.1811 27.6222 32.2238 27.7001 32.2733 27.7549C32.517 27.6561 32.7726 27.6163 33.0057 27.583C33.238 27.5463 33.4594 27.5094 33.6551 27.4238C33.826 27.3504 33.9852 27.228 34.1561 27.0938C34.3885 26.9103 34.6463 26.7268 34.952 26.6289C35.1476 26.5678 35.3194 26.5674 35.4539 26.5674C35.5271 26.5674 35.601 26.5678 35.6863 26.5557C35.8941 26.5312 36.0294 26.4942 36.1639 26.4209C36.285 26.3603 36.3347 26.2991 36.3475 26.2861V26.0654C36.3475 26.0045 36.3471 25.9428 36.3592 25.8818C36.3593 25.7839 36.4206 25.5267 36.4451 25.3799V25.3193C36.4695 25.222 36.4818 25.1479 36.494 25.0869C36.5184 24.9892 36.5306 24.9026 36.5428 24.7441C36.5795 24.4628 36.5677 24.1802 36.5067 23.9111C36.4333 23.5565 36.2862 23.1647 36.0418 22.7002C35.4667 21.5867 35.4905 20.8024 35.5028 20.166C35.5028 19.7747 35.5146 19.4683 35.3924 19.1504C35.1966 18.6488 34.8049 18.3181 34.3768 17.9756C34.022 17.682 33.667 17.3879 33.3856 16.96C33.1042 16.544 32.9693 16.1395 32.8592 15.7969C32.7246 15.3932 32.6262 15.087 32.3328 14.8057C32.0269 14.512 31.6103 14.4134 31.1453 14.291C30.6928 14.1809 30.1907 14.059 29.6649 13.7412C29.2367 13.4843 29.0032 13.1165 28.783 12.7861C28.5629 12.4437 28.3915 12.1864 28.0613 12.0762C27.7065 11.9538 27.3264 12.0515 26.9227 12.1494C26.4946 12.2595 26.0534 12.357 25.5887 12.2471C25.1118 12.1369 24.7202 11.892 24.3778 11.6719C23.9985 11.4394 23.6793 11.2316 23.3123 11.2314Z" fill="white"/>
</svg>
