<svg width="46" height="46" viewBox="0 0 46 46" fill="none" xmlns="http://www.w3.org/2000/svg">
<path d="M8.11527 7.83708C8.44064 6.7525 9.4389 6.00977 10.5712 6.00977H18.0377C19.1701 6.00977 20.1683 6.7525 20.4937 7.83708L21.484 11.138H7.125L8.11527 7.83708Z" fill="white"/>
<path d="M31.7432 11.1377C34.5753 11.1377 36.8719 13.4335 36.8721 16.2656V17.5381C36.5172 17.5065 36.158 17.4902 35.7949 17.4902C29.1675 17.4902 23.7949 22.8628 23.7949 29.4902C23.795 30.9724 24.0643 32.3916 24.5557 33.7021H7.12793C4.29586 33.702 2.00005 31.4053 2 28.5732V16.2656C2.00015 13.4336 4.29592 11.1378 7.12793 11.1377H31.7432ZM35.7949 24.6904C36.1653 24.6904 36.5258 24.7321 36.8721 24.8115V25.9004C36.5912 25.7565 36.3009 25.6699 36 25.6699C33.3491 25.6699 30.9953 32.1406 30.9951 29.4902C30.9951 26.8393 33.144 24.6904 35.7949 24.6904ZM14.3076 15.2402C10.3425 15.2403 7.12793 18.4548 7.12793 22.4199C7.12809 26.3849 10.3426 29.5996 14.3076 29.5996C18.2726 29.5996 21.4871 26.3849 21.4873 22.4199C21.4873 18.4548 18.2727 15.2402 14.3076 15.2402Z" fill="white"/>
<path fill-rule="evenodd" clip-rule="evenodd" d="M35.7911 21.2793C40.3226 21.2793 43.9962 24.9529 43.9962 29.4844C43.9962 31.935 42.9219 34.1348 41.2186 35.6383C39.7721 36.9149 35.7911 40.5613 35.7911 40.5613C35.7911 40.5613 31.81 36.9149 30.3636 35.6383C28.6602 34.1348 27.5859 31.935 27.5859 29.4844C27.5859 24.9529 31.2595 21.2793 35.7911 21.2793ZM35.7911 26.2024C33.9784 26.2024 32.509 27.6718 32.509 29.4844C32.509 31.2971 33.9784 32.7665 35.7911 32.7665C37.6037 32.7665 39.0731 31.2971 39.0731 29.4844C39.0731 27.6718 37.6037 26.2024 35.7911 26.2024Z" fill="white"/>
<circle cx="14.3043" cy="22.4195" r="4.35897" fill="white"/>
</svg>
