<svg width="50" height="50" viewBox="0 0 50 50" fill="none" xmlns="http://www.w3.org/2000/svg">
<path d="M45.25 7.75V14.9863C45.25 16.598 43.9436 17.905 42.332 17.9053H7.66797C6.05638 17.905 4.75 16.598 4.75 14.9863V7.75H45.25Z" stroke="white" stroke-width="3.5"/>
<rect x="32.5859" y="11.3105" width="9.10345" height="3.03448" rx="1.51724" fill="white"/>
<rect x="28.0312" y="11.3105" width="3.03448" height="3.03448" rx="1.51724" fill="white"/>
<mask id="path-4-inside-1_648_35179" fill="white">
<path d="M41.6914 33.3105L41.6865 33.7412C41.458 42.7595 34.0753 50 25.002 50C15.9287 49.9999 8.54689 42.7594 8.31836 33.7412L8.3125 33.3105V16.6211H41.6914V33.3105Z"/>
</mask>
<path d="M41.6914 33.3105L45.1912 33.3502L45.1914 33.3304V33.3105H41.6914ZM41.6865 33.7412L45.1854 33.8299L45.186 33.8054L45.1863 33.7809L41.6865 33.7412ZM25.002 50L25.0019 53.5H25.002V50ZM8.31836 33.7412L4.81868 33.7888L4.81896 33.8094L4.81948 33.8299L8.31836 33.7412ZM8.3125 33.3105H4.8125V33.3344L4.81282 33.3582L8.3125 33.3105ZM8.3125 16.6211V13.1211H4.8125V16.6211H8.3125ZM41.6914 16.6211H45.1914V13.1211H41.6914V16.6211ZM41.6914 33.3105L38.1916 33.2709L38.1867 33.7015L41.6865 33.7412L45.1863 33.7809L45.1912 33.3502L41.6914 33.3105ZM41.6865 33.7412L38.1876 33.6525C38.0071 40.7778 32.1721 46.5 25.002 46.5V50V53.5C35.9785 53.5 44.9089 44.7413 45.1854 33.8299L41.6865 33.7412ZM25.002 50L25.002 46.5C17.8321 46.4999 11.9978 40.7779 11.8172 33.6525L8.31836 33.7412L4.81948 33.8299C5.09599 44.741 14.0253 53.4998 25.0019 53.5L25.002 50ZM8.31836 33.7412L11.818 33.6936L11.8122 33.2629L8.3125 33.3105L4.81282 33.3582L4.81868 33.7888L8.31836 33.7412ZM8.3125 33.3105H11.8125V16.6211H8.3125H4.8125V33.3105H8.3125ZM8.3125 16.6211V20.1211H41.6914V16.6211V13.1211H8.3125V16.6211ZM41.6914 16.6211H38.1914V33.3105H41.6914H45.1914V16.6211H41.6914Z" fill="white" mask="url(#path-4-inside-1_648_35179)"/>
<circle cx="25.0035" cy="34.5924" r="8.87069" stroke="white" stroke-width="3.5"/>
<circle cx="25.004" cy="34.589" r="3.7931" fill="white"/>
</svg>
