<svg width="42" height="42" viewBox="0 0 42 42" fill="none" xmlns="http://www.w3.org/2000/svg">
<circle cx="21.0021" cy="21.0002" r="17.1818" fill="white" fill-opacity="0.3"/>
<circle cx="21.0021" cy="21.0002" r="16.2273" stroke="white" stroke-opacity="0.6" stroke-width="1.90909"/>
<path d="M20.9951 26.7266C22.0494 26.7266 22.9042 27.5815 22.9043 28.6357C22.9043 29.6901 22.0495 30.5449 20.9951 30.5449C19.9408 30.5449 19.0859 29.6901 19.0859 28.6357C19.086 27.5815 19.9408 26.7266 20.9951 26.7266ZM20.9951 11.4541C22.0494 11.4541 22.9043 12.3089 22.9043 13.3633V22.9082C22.9043 23.9625 22.0494 24.8173 20.9951 24.8174C19.9408 24.8174 19.0859 23.9626 19.0859 22.9082V13.3633C19.0859 12.3089 19.9408 11.4541 20.9951 11.4541Z" fill="white"/>
</svg>
