<svg width="50" height="50" viewBox="0 0 50 50" fill="none" xmlns="http://www.w3.org/2000/svg">
<path d="M12.6041 12.6041C13.4095 11.7986 14.7154 11.7986 15.5208 12.6041L25.0001 22.0834L34.4794 12.6041L34.6361 12.4631C35.4461 11.8021 36.641 11.8489 37.3961 12.6041C38.1513 13.3592 38.1981 14.5541 37.5371 15.3641L37.3961 15.5208L27.9168 25.0001L37.3961 34.4794L37.5371 34.6361C38.1981 35.4461 38.1513 36.641 37.3961 37.3961C36.641 38.1513 35.4461 38.1981 34.6361 37.5371L34.4794 37.3961L25.0001 27.9168L15.5208 37.3961C14.7154 38.2016 13.4095 38.2016 12.6041 37.3961C11.7986 36.5907 11.7986 35.2848 12.6041 34.4794L22.0834 25.0001L12.6041 15.5208C11.7986 14.7154 11.7986 13.4095 12.6041 12.6041Z" fill="white"/>
</svg>
